<?xml version="1.0" standalone="no"?>
<!DOCTYPE svg PUBLIC "-//W3C//DTD SVG 20010904//EN"
 "http://www.w3.org/TR/2001/REC-SVG-20010904/DTD/svg10.dtd">
<svg version="1.0" xmlns="http://www.w3.org/2000/svg"
 width="1242.000000pt" height="1242.000000pt" viewBox="0 0 1242.000000 1242.000000"
 preserveAspectRatio="xMidYMid meet">

<g transform="translate(0.000000,1242.000000) scale(0.100000,-0.100000)"
fill="#000000" stroke="none">
<path d="M7665 10100 c-11 -4 -57 -10 -101 -14 -45 -4 -95 -9 -110 -11 -78
-12 -145 -25 -209 -40 -38 -9 -97 -20 -130 -24 -33 -5 -89 -22 -125 -39 -36
-17 -84 -34 -105 -37 -22 -4 -44 -11 -50 -15 -10 -8 -18 -9 -150 -30 -38 -6
-79 -15 -90 -20 -11 -5 -38 -14 -60 -21 -22 -7 -45 -17 -51 -21 -6 -4 -33 -12
-60 -17 -83 -16 -134 -45 -210 -118 -15 -13 -25 -17 -28 -10 -3 9 -5 8 -5 0
-1 -7 -11 -13 -23 -13 -13 0 -37 -9 -55 -20 -20 -12 -35 -15 -38 -9 -4 5 -16
7 -28 3 -23 -7 -97 -80 -97 -95 0 -5 -6 -9 -14 -9 -8 0 -16 -6 -19 -12 -2 -7
-8 -9 -13 -5 -4 4 -3 17 4 27 17 27 15 30 -13 30 -14 0 -25 -4 -25 -9 0 -5
-15 -12 -32 -16 -29 -6 -31 -8 -13 -15 18 -7 18 -9 3 -15 -9 -4 -21 -4 -26 -1
-10 6 -44 -30 -55 -57 -3 -9 -11 -17 -17 -17 -5 0 -10 -9 -10 -21 0 -11 -4
-17 -10 -14 -6 3 -10 -4 -10 -17 0 -13 -13 -39 -30 -58 -16 -19 -29 -40 -30
-45 0 -6 -9 -17 -20 -25 -11 -8 -20 -22 -20 -32 0 -22 -20 -34 -30 -18 -4 6
-16 10 -26 8 -17 -3 -16 -5 6 -25 23 -22 23 -23 5 -43 -14 -16 -21 -18 -28 -8
-6 9 -7 6 -4 -9 3 -16 0 -23 -9 -23 -8 0 -14 -10 -14 -25 0 -14 4 -25 9 -25 6
0 11 -17 13 -37 3 -32 6 -38 28 -38 19 0 26 -7 34 -32 17 -63 38 -36 37 47 0
45 3 59 16 64 14 6 14 8 -1 24 -18 20 -21 48 -7 56 5 3 18 -13 29 -35 20 -40
19 -66 -2 -81 -15 -11 13 -28 33 -20 27 10 41 29 41 56 0 14 5 26 10 26 6 0
10 13 10 29 0 17 5 33 10 36 6 3 10 15 10 26 0 10 9 28 20 39 11 11 20 16 20
10 0 -23 -23 -116 -31 -125 -14 -14 -11 -45 6 -51 8 -4 15 -17 15 -30 0 -27 3
-28 31 -14 10 6 19 20 19 30 0 11 4 20 9 20 5 0 12 11 15 25 4 14 11 25 16 25
6 0 10 9 10 20 0 28 17 25 24 -5 6 -24 26 -35 26 -15 0 6 11 22 25 36 14 14
25 31 25 39 0 8 5 15 10 15 6 0 10 6 10 14 0 8 3 16 8 18 4 2 24 28 45 58 48
71 86 114 94 106 4 -3 0 -12 -9 -19 -8 -6 -22 -27 -29 -44 -8 -18 -18 -33 -23
-33 -4 0 -3 -7 4 -15 7 -8 21 -15 32 -15 18 0 40 -37 31 -52 -2 -5 1 -8 6 -8
6 0 11 4 11 10 0 5 6 7 13 5 7 -3 20 13 32 38 23 48 41 70 62 73 10 2 12 -6 8
-34 -6 -35 -5 -36 9 -18 9 11 16 16 16 11 0 -5 13 4 29 19 23 22 29 24 34 12
7 -16 6 -17 105 46 34 21 42 22 42 3 0 -19 19 -19 44 0 11 8 27 15 36 15 22 0
95 38 149 77 52 39 78 48 95 34 8 -7 23 -8 42 -2 16 5 48 14 72 21 23 7 42 17
42 22 0 4 7 8 15 8 8 0 23 7 33 16 37 33 92 63 98 53 3 -6 -3 -13 -14 -16 -11
-3 -23 -11 -26 -19 -8 -20 22 -30 45 -16 10 7 26 12 34 12 8 0 37 11 65 24 27
13 73 29 102 36 29 7 62 18 74 25 11 7 65 16 120 19 99 5 179 19 199 35 5 5
28 11 50 14 22 2 73 14 112 26 40 11 88 21 108 21 19 0 54 4 77 9 164 37 271
47 438 44 19 0 71 4 116 9 63 7 98 6 163 -6 46 -9 107 -16 137 -16 29 0 66 -5
81 -11 15 -6 39 -16 53 -21 14 -6 37 -17 52 -24 14 -8 37 -14 50 -14 29 0 95
-23 110 -38 7 -7 20 -12 30 -12 17 0 36 -8 78 -32 8 -4 22 -11 30 -15 8 -3 25
-17 37 -30 12 -13 27 -23 33 -23 5 0 10 -7 10 -15 0 -8 5 -15 10 -15 6 0 10
-7 10 -15 0 -8 5 -15 10 -15 6 0 10 9 10 20 0 11 -4 20 -8 20 -4 0 -13 15 -20
33 -20 56 -141 187 -172 187 -5 0 -13 6 -17 13 -9 14 -113 67 -131 67 -7 0
-12 5 -12 10 0 6 -4 10 -9 10 -5 0 -45 16 -88 36 -149 69 -164 73 -314 103
-53 10 -106 24 -117 30 -11 6 -39 11 -61 11 -22 0 -43 5 -46 10 -7 12 -868 12
-900 0z m-1885 -640 c0 -11 -2 -20 -4 -20 -2 0 -6 9 -9 20 -3 11 -1 20 4 20 5
0 9 -9 9 -20z m775 -40 c-3 -5 -10 -10 -16 -10 -5 0 -9 5 -9 10 0 6 7 10 16
10 8 0 12 -4 9 -10z m-595 -200 c0 -5 -2 -10 -4 -10 -3 0 -8 5 -11 10 -3 6 -1
10 4 10 6 0 11 -4 11 -10z m-30 -46 c0 -8 -4 -12 -10 -9 -5 3 -10 10 -10 16 0
5 5 9 10 9 6 0 10 -7 10 -16z m-340 -101 c0 -5 -5 -15 -10 -23 -8 -12 -10 -11
-10 8 0 12 5 22 10 22 6 0 10 -3 10 -7z"/>
<path d="M6090 9269 c0 -23 27 -55 38 -45 3 4 0 11 -8 17 -11 7 -12 11 -3 17
9 6 7 11 -7 20 -18 11 -20 10 -20 -9z"/>
<path d="M5216 9128 c-3 -13 -6 -42 -6 -66 0 -24 -4 -41 -9 -38 -5 4 -7 -4 -4
-15 6 -20 7 -20 18 -5 18 24 25 20 25 -14 0 -38 21 -39 38 -3 16 36 15 50 -7
82 -10 14 -21 37 -22 50 -5 32 -25 38 -33 9z"/>
<path d="M5417 9118 c-4 -12 -7 -40 -7 -60 0 -29 3 -36 15 -32 10 4 15 20 15
48 0 51 -14 78 -23 44z"/>
<path d="M2626 9088 c-11 -6 -74 -13 -140 -16 -67 -2 -125 -8 -131 -12 -5 -4
-43 -17 -82 -29 -40 -13 -75 -27 -78 -32 -4 -5 -16 -9 -28 -9 -13 0 -29 -10
-37 -22 -8 -13 -32 -40 -53 -62 -44 -45 -67 -86 -67 -116 0 -11 -4 -20 -10
-20 -5 0 -10 -15 -10 -34 0 -19 -4 -46 -10 -60 -6 -16 -6 -27 0 -31 14 -8 13
-72 -1 -77 -6 -2 -9 -17 -7 -33 4 -27 5 -28 13 -10 10 23 30 45 41 45 4 0 12
7 18 15 12 16 137 65 168 65 10 0 31 9 46 19 32 24 77 28 115 12 43 -17 108
-14 122 6 11 15 16 16 41 3 16 -8 32 -16 37 -18 4 -2 7 4 7 13 0 13 7 15 38 9
20 -3 46 -14 57 -24 37 -32 75 -34 43 -2 -19 19 0 27 29 11 14 -8 33 -13 42
-11 9 1 34 -7 56 -18 21 -11 48 -20 59 -20 10 0 41 -13 68 -30 56 -35 58 -35
58 -15 0 8 -5 15 -11 15 -5 0 -7 5 -3 11 3 6 9 7 13 2 16 -23 96 -83 110 -83
9 0 12 3 6 8 -17 12 -36 52 -25 52 5 0 10 -4 10 -10 0 -5 9 -10 21 -10 11 0
17 -4 14 -10 -3 -6 1 -7 9 -4 9 3 16 2 16 -3 0 -5 9 -9 20 -10 23 -2 27 15 5
23 -16 6 -11 24 6 24 6 0 7 -4 4 -10 -3 -5 1 -10 9 -10 9 0 16 -4 16 -10 0 -5
7 -10 15 -10 8 0 15 -4 15 -10 0 -5 7 -10 15 -10 11 0 12 5 5 26 -6 14 -9 35
-9 47 1 17 2 18 6 5 2 -10 11 -18 18 -18 7 0 16 -6 18 -12 4 -10 8 -10 15 1
16 22 65 -13 57 -40 -5 -15 -2 -19 14 -19 12 0 21 5 21 12 0 6 3 8 6 5 4 -4 1
-13 -6 -22 -15 -17 -7 -19 21 -5 15 9 19 7 19 -5 0 -9 7 -18 15 -21 8 -4 15
-12 15 -20 0 -8 5 -14 10 -14 6 0 10 -6 10 -14 0 -7 9 -16 20 -19 13 -3 20 0
20 9 0 23 20 16 56 -21 18 -19 43 -35 56 -35 12 0 29 -6 37 -13 10 -8 28 -11
46 -7 l30 6 -47 24 c-27 13 -48 28 -48 32 0 5 -4 7 -9 4 -4 -3 -28 18 -52 47
-24 28 -47 54 -51 55 -5 2 -8 8 -8 14 0 5 -7 16 -15 25 -8 8 -12 20 -8 26 4 7
10 2 16 -11 6 -13 25 -30 44 -38 18 -9 33 -23 33 -30 0 -8 5 -14 10 -14 6 0
20 -9 32 -20 51 -47 26 21 -29 80 -19 20 -33 46 -33 60 0 14 -12 36 -25 49
-14 13 -25 29 -25 36 0 7 -12 21 -26 31 -15 10 -39 29 -54 42 -15 12 -33 22
-39 22 -6 0 -11 4 -11 9 0 4 -62 39 -137 77 -76 38 -140 73 -141 77 -2 4 -19
5 -38 1 -22 -4 -34 -2 -34 5 0 6 -11 11 -24 11 -14 0 -28 5 -31 10 -3 6 -19
10 -36 10 -16 0 -29 4 -29 8 0 5 -22 14 -49 21 -28 7 -67 21 -88 32 -20 10
-44 19 -53 19 -9 0 -20 4 -25 9 -16 14 -118 21 -139 9z m354 -428 c0 -5 -4
-10 -10 -10 -5 0 -10 5 -10 10 0 6 5 10 10 10 6 0 10 -4 10 -10z m294 -15 c3
-8 1 -17 -4 -20 -6 -4 -10 1 -10 9 0 9 -4 16 -10 16 -5 0 -10 4 -10 10 0 13
27 1 34 -15z m211 -71 c14 -9 22 -20 19 -25 -8 -14 -24 -10 -24 6 0 8 -7 15
-15 15 -8 0 -15 5 -15 10 0 14 7 13 35 -6z m45 -44 c0 -5 -7 -10 -15 -10 -8 0
-15 5 -15 10 0 6 7 10 15 10 8 0 15 -4 15 -10z m45 -70 c3 -5 -1 -10 -10 -10
-9 0 -13 5 -10 10 3 6 8 10 10 10 2 0 7 -4 10 -10z"/>
<path d="M5457 9036 c-17 -13 -21 -66 -5 -66 4 0 8 -9 8 -20 0 -24 15 -27 24
-4 9 22 7 104 -1 104 -5 0 -16 -7 -26 -14z"/>
<path d="M5131 8964 c0 -11 3 -14 6 -6 3 7 2 16 -1 19 -3 4 -6 -2 -5 -13z"/>
<path d="M5145 8907 c-9 -45 17 -139 47 -172 16 -17 20 -18 29 -5 8 11 12 12
16 3 7 -18 23 -16 23 2 0 8 -11 25 -25 37 -14 12 -25 28 -25 35 0 7 -4 13 -10
13 -5 0 -10 8 -10 18 0 10 -5 23 -11 29 -6 6 -14 26 -19 45 l-7 33 -8 -38z"/>
<path d="M5280 8904 c-10 -11 -11 -20 -3 -32 17 -27 38 -20 38 12 0 34 -16 44
-35 20z"/>
<path d="M7410 8914 c-12 -3 -15 -14 -12 -39 l4 -35 -51 1 c-51 2 -63 13 -39
37 9 9 7 12 -10 12 -12 0 -22 -5 -22 -11 0 -7 -10 -9 -25 -5 -21 5 -29 1 -43
-24 -17 -29 -45 -39 -57 -20 -10 17 -27 11 -23 -7 2 -11 -6 -23 -20 -30 -31
-17 -32 -17 -32 7 0 12 -7 20 -16 20 -12 0 -15 -6 -10 -25 5 -21 3 -25 -15
-25 -11 0 -27 -7 -35 -15 -9 -8 -35 -20 -60 -26 -24 -6 -44 -15 -44 -20 0 -5
-7 -9 -15 -9 -8 0 -23 -4 -33 -10 -9 -5 -35 -17 -57 -26 -22 -10 -54 -28 -71
-41 -17 -13 -36 -23 -43 -23 -6 0 -14 -7 -17 -15 -4 -8 -15 -15 -25 -15 -10 0
-19 -4 -19 -10 0 -5 -7 -10 -15 -10 -9 0 -18 -7 -21 -15 -4 -8 -12 -15 -18
-15 -7 0 -23 -11 -36 -25 -13 -14 -29 -25 -37 -25 -7 0 -13 -4 -13 -9 0 -5 -9
-12 -19 -16 -22 -7 -71 -53 -71 -67 0 -10 55 18 84 45 11 9 23 17 27 17 4 0
14 6 21 13 7 7 30 21 50 30 20 10 40 22 43 27 3 6 15 10 26 10 10 0 19 4 19 8
0 9 103 62 160 82 50 17 70 25 113 44 21 9 49 16 62 16 13 0 27 5 30 10 3 6
21 10 39 10 19 0 47 7 62 15 16 8 43 15 60 15 16 0 34 4 40 9 5 5 52 12 104
16 52 3 112 11 133 16 21 6 46 8 55 5 10 -4 43 -7 75 -7 31 -1 57 -6 57 -11 0
-6 22 -7 54 -3 69 9 112 -1 119 -26 3 -10 1 -19 -3 -19 -5 0 -19 -17 -31 -37
-13 -21 -27 -39 -31 -41 -4 -2 -8 -10 -8 -18 0 -8 -4 -14 -10 -14 -5 0 -12
-11 -16 -25 -8 -32 -30 -27 -26 6 2 13 0 48 -3 77 -6 51 -7 53 -25 37 -10 -9
-16 -23 -13 -31 3 -8 -3 -37 -13 -66 -23 -66 -64 -113 -64 -73 0 8 5 15 10 15
6 0 10 16 10 35 0 19 -3 35 -6 35 -15 0 -43 -48 -44 -72 0 -20 -5 -28 -17 -28
-16 0 -18 8 -15 65 3 42 0 65 -7 65 -6 0 -11 11 -11 25 0 14 -4 25 -8 25 -4 0
-9 -39 -10 -87 -2 -48 -4 -89 -6 -91 -10 -9 -46 25 -46 44 0 12 -7 24 -15 28
-8 3 -15 16 -15 30 0 14 -4 28 -10 31 -6 4 -10 -11 -10 -39 0 -25 5 -48 10
-51 6 -3 10 -17 10 -30 0 -14 7 -25 18 -28 16 -4 16 -4 -1 -12 -13 -5 -25 0
-42 19 -14 15 -25 33 -25 41 0 8 -4 17 -10 20 -6 4 -10 -7 -10 -24 0 -17 5
-31 10 -31 6 0 10 -9 10 -19 0 -11 6 -22 13 -24 8 -4 7 -6 -4 -6 -20 -1 -79
52 -79 71 0 9 -7 21 -15 28 -8 7 -15 21 -15 31 0 10 -4 20 -9 23 -5 4 -13 25
-17 49 l-8 42 -13 -65 c-8 -36 -17 -80 -21 -98 -4 -18 -10 -33 -14 -32 -5 0
-15 0 -23 0 -8 0 -15 8 -15 19 0 10 -10 40 -22 67 l-23 49 -3 -55 c-2 -32 1
-56 7 -58 6 -2 11 -12 11 -22 0 -9 7 -23 15 -30 8 -7 15 -18 15 -24 0 -6 9
-17 20 -24 20 -12 28 -42 11 -42 -4 0 -20 9 -34 20 -14 11 -28 20 -31 20 -4 0
-2 -9 4 -20 9 -16 8 -20 -5 -20 -8 0 -15 5 -15 10 0 6 -5 10 -11 10 -14 0 -39
26 -39 40 0 6 -6 10 -12 8 -15 -5 -21 -59 -6 -55 6 1 13 -4 15 -10 8 -22 -15
-14 -35 12 -24 30 -32 31 -32 5 0 -11 5 -20 10 -20 6 0 10 -9 10 -20 0 -17 -7
-20 -42 -20 -33 0 -47 6 -65 27 -13 14 -23 30 -23 35 0 10 -25 38 -34 38 -12
0 -5 -28 20 -81 15 -30 30 -56 34 -59 4 -3 10 -15 14 -27 6 -20 4 -23 -18 -23
-14 0 -26 5 -26 10 0 6 -8 10 -17 10 -10 1 -35 22 -55 48 -31 38 -38 55 -38
89 0 24 -4 43 -10 43 -6 0 -10 -29 -10 -66 0 -47 3 -63 12 -58 7 4 8 3 4 -5
-4 -6 6 -33 21 -59 44 -71 45 -78 17 -97 -32 -20 -49 -8 -58 40 -10 50 -26 43
-26 -10 0 -25 -3 -45 -7 -45 -13 0 -92 66 -93 78 0 6 -9 21 -20 32 -16 16 -20
17 -20 5 0 -8 5 -15 10 -15 6 0 10 -6 10 -14 0 -17 17 -51 48 -93 12 -17 22
-34 22 -37 0 -3 -16 -6 -35 -6 -19 0 -35 5 -35 10 0 6 -6 10 -14 10 -8 0 -16
6 -19 13 -2 6 -8 9 -12 4 -14 -12 17 -56 52 -74 44 -23 43 -37 -3 -41 -26 -2
-40 1 -46 12 -12 22 -52 22 -44 0 3 -9 6 -19 6 -24 0 -4 10 -11 23 -15 21 -7
21 -7 2 -12 -10 -3 -21 0 -23 6 -2 6 -12 11 -23 11 -10 0 -19 5 -19 10 0 6 -7
10 -15 10 -21 0 -19 -13 6 -30 12 -8 27 -21 35 -27 7 -7 17 -13 23 -13 6 0 11
-4 11 -10 0 -13 -36 -13 -60 0 -13 7 -21 7 -25 0 -3 -5 1 -10 9 -10 13 0 36
-28 36 -44 0 -12 -46 -5 -64 9 -38 29 -50 9 -16 -25 27 -27 25 -36 -10 -49
-16 -5 -30 -14 -30 -19 0 -12 -66 -52 -86 -52 -8 0 -14 -3 -14 -7 0 -5 -12
-14 -27 -20 -29 -14 -65 -18 -48 -5 13 9 34 42 41 65 4 9 10 17 15 17 5 0 9 8
9 17 0 14 -3 14 -20 -5 -11 -12 -20 -26 -20 -32 0 -5 -7 -10 -15 -10 -8 0 -15
-9 -15 -19 0 -11 -5 -21 -11 -23 -6 -2 -15 -25 -20 -51 -19 -106 33 -133 236
-122 100 6 135 11 139 21 3 8 1 14 -4 14 -6 0 -10 -6 -10 -12 0 -9 -4 -8 -10
2 -7 11 -10 12 -10 2 0 -14 -31 -13 -135 2 -22 4 -67 10 -99 14 -66 8 -97 34
-62 54 10 5 27 19 37 29 11 11 23 19 28 19 4 0 29 11 55 25 59 31 84 32 95 2
5 -13 25 -41 44 -61 28 -30 42 -37 64 -34 25 4 26 5 8 13 -22 10 -45 30 -45
40 0 4 -6 13 -12 20 -32 36 -38 46 -38 65 0 11 8 24 18 27 16 6 29 16 106 75
16 13 54 47 84 76 31 29 68 58 83 64 15 7 26 15 24 19 -3 3 13 15 35 25 22 10
40 22 40 26 0 8 59 38 75 38 7 0 18 7 25 15 7 9 22 15 33 13 17 -3 21 -12 24
-73 2 -38 8 -74 13 -79 6 -6 10 -22 10 -37 0 -27 44 -122 67 -147 7 -7 13 -17
13 -22 0 -12 83 -90 97 -90 7 0 13 -3 13 -8 0 -8 44 -32 100 -53 46 -18 212
-18 270 0 74 22 130 46 130 54 0 4 4 7 10 7 15 0 109 102 125 135 40 86 45
110 45 204 0 86 -14 158 -33 177 -31 32 32 46 81 20 15 -8 39 -17 53 -20 14
-3 43 -19 64 -36 22 -17 47 -29 56 -27 12 3 16 0 12 -9 -3 -8 0 -14 5 -14 6 0
35 -25 64 -55 34 -36 61 -55 76 -55 29 0 24 24 -5 28 -22 3 -38 38 -22 48 13
7 69 -28 69 -43 0 -7 4 -13 8 -13 5 0 17 -8 28 -17 36 -33 58 -48 50 -36 -5 9
-2 11 7 7 9 -3 13 -13 10 -25 -7 -25 8 -24 30 1 13 15 28 20 64 19 27 -1 40
-3 31 -6 -10 -2 -18 -11 -18 -19 0 -8 -8 -14 -18 -14 -11 0 -24 -11 -30 -25
-8 -17 -20 -25 -37 -25 -14 0 -25 -5 -25 -11 0 -17 -27 -39 -49 -39 -11 0 -24
-6 -28 -14 -4 -7 -23 -17 -42 -21 l-35 -7 40 37 c21 20 49 43 62 52 34 24 26
36 -10 16 -18 -10 -35 -21 -38 -24 -12 -13 -118 -89 -124 -89 -5 0 -22 -10
-39 -22 -44 -32 -135 -78 -153 -78 -8 0 -14 -4 -14 -10 0 -5 -6 -10 -14 -10
-8 0 -29 -8 -48 -17 -54 -27 -62 -30 -96 -37 -17 -4 -34 -12 -37 -17 -4 -5
-19 -9 -34 -9 -15 0 -31 -3 -35 -7 -11 -11 -114 -34 -176 -39 -30 -3 -64 -9
-75 -14 -27 -13 -448 -19 -499 -8 -23 5 -61 13 -86 18 -25 5 -81 16 -125 24
-85 17 -190 21 -130 6 17 -4 23 -9 15 -10 -26 -4 62 -19 116 -19 27 -1 54 -5
60 -10 5 -6 32 -11 59 -12 28 -2 56 -9 63 -16 12 -11 105 -20 150 -14 8 1 19
-2 25 -7 7 -6 36 -10 66 -10 57 0 71 -9 64 -46 -3 -13 2 -28 11 -35 9 -8 16
-17 16 -22 0 -13 33 -49 44 -49 5 0 17 -7 27 -16 13 -11 27 -13 55 -8 l39 7
-42 14 c-44 15 -103 76 -103 107 0 9 -4 16 -10 16 -5 0 -10 7 -10 15 0 10 10
15 33 15 18 0 38 5 44 11 17 17 73 1 73 -21 0 -10 13 -23 32 -31 44 -18 68
-44 68 -73 0 -25 -29 -88 -42 -94 -9 -4 -11 -42 -3 -42 13 0 45 37 45 52 0 10
5 18 10 18 6 0 10 10 10 21 0 16 5 20 20 16 16 -4 20 0 20 19 0 17 -6 24 -20
24 -16 0 -20 7 -20 30 0 17 -9 40 -20 52 -17 19 -20 19 -26 5 -8 -21 -24 -22
-24 -2 0 8 -7 15 -15 15 -8 0 -15 5 -15 10 0 6 22 10 48 10 26 0 52 4 58 9 5
5 29 11 54 14 25 2 55 7 68 10 14 4 22 1 22 -7 0 -8 11 -21 25 -30 13 -9 32
-30 40 -46 9 -17 20 -30 25 -30 19 0 9 45 -15 69 -14 13 -25 27 -25 32 0 5 -7
9 -16 9 -8 0 -12 5 -9 10 11 17 35 11 59 -15 13 -14 28 -25 33 -25 22 0 76
-34 80 -51 3 -10 11 -20 19 -23 8 -3 14 -15 14 -26 0 -11 5 -20 10 -20 6 0 10
16 10 35 0 19 -4 35 -10 35 -5 0 -10 7 -10 15 0 8 -5 15 -11 15 -7 0 -19 8
-28 18 -16 19 -59 44 -96 58 -17 6 -14 8 18 16 20 6 37 14 37 19 0 5 14 9 30
9 17 0 30 5 30 10 0 6 9 10 19 10 11 0 26 7 35 15 8 8 21 15 29 15 19 0 77 32
77 43 0 4 7 7 16 7 8 0 22 6 29 13 36 31 45 37 64 37 10 0 21 7 25 15 3 8 12
15 21 15 9 0 18 -7 21 -15 4 -10 21 -15 53 -15 53 0 127 -33 145 -65 6 -11 17
-26 24 -34 9 -9 13 -33 10 -68 -1 -29 0 -53 5 -53 4 0 7 38 7 84 l0 84 -31 7
c-19 4 -33 15 -36 26 -3 10 -10 19 -15 19 -5 0 -16 7 -24 15 -9 8 -26 15 -40
15 -13 0 -24 5 -24 10 0 18 57 10 104 -15 53 -28 96 -33 96 -10 0 8 -5 15 -11
15 -12 0 -39 25 -39 36 0 4 -7 12 -15 18 -11 8 -12 15 -4 26 8 11 12 12 16 3
2 -7 14 -13 25 -13 11 0 32 -12 45 -26 27 -29 44 -24 25 6 -18 30 7 26 41 -6
16 -14 31 -23 35 -19 3 3 1 9 -5 13 -6 4 -13 18 -14 32 -5 35 25 38 54 6 24
-26 47 -34 47 -17 0 14 -30 41 -45 41 -8 0 -20 9 -27 19 -8 10 -25 21 -38 23
-14 1 -25 8 -25 13 0 13 60 19 82 7 22 -12 43 -5 43 14 0 8 6 14 13 15 6 0 64
3 127 5 87 4 119 9 130 20 13 15 13 16 -5 11 -41 -12 -108 -12 -112 -1 -2 6 6
14 18 17 11 3 18 10 15 15 -3 6 0 13 6 16 7 3 3 3 -9 1 -12 -3 -24 -1 -28 5
-8 13 -55 13 -55 0 0 -5 -10 -10 -21 -10 -16 0 -20 5 -16 20 7 26 -13 38 -28
16 -7 -10 -28 -17 -49 -18 -74 -3 -65 38 11 48 21 3 53 12 70 20 95 42 103 48
109 81 4 19 12 33 20 33 8 0 14 5 14 10 0 6 -5 10 -10 10 -12 0 -58 -28 -78
-47 -7 -7 -25 -16 -40 -19 -15 -3 -33 -8 -41 -10 -23 -7 -181 8 -181 17 0 5 9
9 20 9 11 0 23 7 26 15 4 8 10 15 16 15 12 0 38 26 38 38 0 6 6 12 13 15 6 2
8 8 4 13 -4 5 -11 4 -15 -1 -9 -13 -42 -34 -64 -41 -10 -4 -18 -10 -18 -15 0
-5 -13 -9 -30 -9 -16 0 -30 5 -30 10 0 6 7 10 15 10 8 0 15 4 15 10 0 5 16 17
36 26 43 21 150 122 139 132 -4 4 -10 1 -12 -5 -3 -7 -10 -13 -16 -13 -7 0
-24 -11 -39 -25 -15 -14 -31 -25 -37 -25 -5 0 -11 -3 -13 -7 -9 -21 -92 -64
-116 -61 l-27 4 25 12 c49 23 120 80 120 96 0 14 -34 4 -68 -19 -20 -14 -42
-25 -49 -25 -7 0 -13 -4 -13 -10 0 -5 -10 -10 -22 -10 -23 0 -23 0 4 23 14 12
36 29 47 37 12 8 21 22 21 31 0 10 11 20 25 23 34 9 32 17 -16 52 -22 16 -51
39 -64 52 -13 12 -31 22 -39 22 -9 0 -20 9 -26 19 -7 13 -16 17 -31 14 -14 -4
-26 0 -33 9 -6 8 -18 17 -26 20 -10 4 -6 8 13 13 15 4 27 11 27 16 0 13 -48
11 -52 -3 -2 -6 -10 -8 -17 -4 -9 6 -9 11 0 22 9 11 7 15 -7 20 -11 4 -31 18
-46 32 -27 24 -54 22 -44 -4 8 -20 -21 -29 -39 -14 -8 7 -15 21 -15 32 0 10
-7 21 -15 24 -8 4 -15 12 -15 20 0 8 -10 14 -25 14 -14 0 -25 5 -25 10 0 6 -4
10 -10 10 -5 0 -10 -16 -10 -35 0 -40 1 -40 -36 -20 -16 8 -37 15 -46 15 -13
0 -18 8 -18 31 0 28 -2 31 -24 25 -19 -5 -26 -1 -31 13 -5 18 -17 20 -118 23
l-112 3 -24 -28 c-22 -27 -24 -27 -40 -10 -9 10 -20 26 -24 36 -3 9 -15 17
-25 17 -11 0 -32 2 -48 4 -16 2 -36 2 -44 0z m80 -46 c0 -10 -4 -18 -10 -18
-5 0 -10 2 -10 4 0 2 -2 11 -5 19 -4 8 0 14 10 14 8 0 15 -9 15 -19z m-32 -10
c-6 -18 -28 -21 -28 -4 0 9 7 16 16 16 9 0 14 -5 12 -12z m262 2 c0 -17 -34
-29 -53 -19 -28 16 -20 29 18 29 19 0 35 -4 35 -10z m100 -10 c22 -16 23 -20
8 -25 -28 -11 -53 -1 -56 23 -4 27 14 28 48 2z m250 -85 c0 -19 -10 -18 -34 0
-10 7 -15 18 -11 24 9 15 45 -5 45 -24z m-120 -61 c0 -20 27 -29 44 -15 13 11
46 5 57 -11 3 -4 18 -9 33 -10 46 -4 43 -26 -12 -79 -57 -55 -72 -60 -72 -25
0 13 -3 37 -6 54 -6 27 -9 30 -25 21 -12 -6 -19 -21 -19 -38 0 -16 -7 -34 -15
-41 -8 -7 -15 -17 -15 -22 0 -15 -27 -38 -44 -38 -13 0 -13 5 4 35 23 41 17
45 -16 10 -21 -23 -44 -33 -44 -19 0 12 35 69 53 85 9 9 17 25 17 35 0 14 -5
11 -22 -13 -13 -18 -27 -33 -31 -33 -4 0 -19 -12 -32 -27 -22 -25 -24 -26 -24
-8 0 11 9 34 20 50 10 17 21 37 25 45 25 63 33 68 92 62 19 -3 32 -10 32 -18z
m245 -74 c3 -5 17 -10 31 -10 13 0 24 -4 24 -10 0 -5 11 -12 25 -16 14 -3 25
-10 25 -15 0 -5 6 -9 13 -9 22 0 177 -83 177 -95 0 -16 -120 -125 -137 -125
-7 0 -13 9 -13 20 0 11 7 20 15 20 17 0 89 70 80 78 -2 3 -16 -7 -29 -21 -14
-15 -34 -27 -45 -27 -10 0 -22 -6 -25 -12 -3 -7 -2 1 1 17 l6 30 -26 -25 c-33
-33 -87 -64 -87 -51 0 6 5 11 10 11 6 0 10 4 10 10 0 5 20 30 45 56 47 48 64
96 25 72 -11 -7 -20 -16 -20 -19 0 -3 -11 -19 -25 -35 -22 -25 -27 -27 -45
-16 -17 10 -23 9 -40 -8 -41 -41 -55 -17 -15 26 13 14 21 32 18 38 -5 7 -9 5
-11 -5 -4 -19 -89 -66 -100 -54 -4 4 -1 10 6 12 6 3 12 11 12 19 0 8 5 14 10
14 6 0 10 7 10 15 0 8 4 15 9 15 5 0 11 9 14 20 7 28 0 25 -40 -15 -41 -41
-61 -46 -37 -10 9 14 20 25 24 25 4 0 12 12 19 28 24 51 69 79 86 52z m-971
-76 c3 -9 6 -26 6 -39 0 -13 5 -27 10 -30 6 -3 10 -15 10 -26 0 -10 5 -19 10
-19 6 0 10 -4 10 -10 0 -14 -36 -12 -48 3 -14 17 -27 137 -14 137 5 0 13 -7
16 -16z m-281 -269 c1 -5 -6 -11 -15 -13 -11 -2 -18 3 -18 13 0 17 30 18 33 0z
m807 -90 c0 -9 11 -20 25 -25 19 -7 25 -17 25 -39 0 -16 5 -33 10 -36 6 -3 10
-24 10 -45 0 -21 -4 -42 -10 -45 -5 -3 -10 -23 -10 -43 0 -20 -7 -50 -15 -66
-8 -15 -15 -34 -15 -41 0 -7 -16 -30 -35 -49 -19 -20 -35 -41 -35 -46 0 -6 -7
-10 -15 -10 -8 0 -15 -4 -15 -9 0 -19 -70 -41 -129 -41 -34 0 -61 -4 -61 -9 0
-4 -20 -14 -45 -21 -46 -13 -96 -6 -147 21 -10 5 -25 9 -33 9 -8 0 -25 5 -38
12 -12 6 -28 14 -36 18 -8 3 -19 20 -24 36 -6 16 -13 31 -17 34 -3 3 -9 13
-13 22 -3 10 -13 15 -24 12 -19 -5 -43 29 -43 60 0 8 -7 27 -15 42 -21 40 -20
45 20 82 l34 33 21 -21 c28 -28 37 -25 36 13 -1 26 3 33 22 35 17 3 22 -2 22
-17 0 -12 -4 -21 -10 -21 -14 0 -13 -37 1 -42 9 -3 9 -9 0 -25 -6 -12 -11 -35
-11 -50 0 -16 -5 -34 -12 -41 -6 -6 -9 -14 -6 -18 9 -8 45 4 63 22 11 11 19
12 32 5 10 -6 12 -11 6 -11 -21 0 -15 -34 9 -54 20 -17 25 -18 47 -5 20 11 41
12 96 5 46 -6 70 -5 73 2 1 5 12 7 23 5 17 -5 20 -2 17 13 -4 23 63 65 70 44
5 -14 62 38 62 57 0 8 -7 16 -15 19 -19 8 -20 34 -1 34 18 0 61 57 69 92 6 21
3 28 -13 33 -43 14 -10 79 43 84 4 1 7 -6 7 -14z m-80 -85 c0 -5 -4 -10 -10
-10 -5 0 -10 5 -10 10 0 6 5 10 10 10 6 0 10 -4 10 -10z m-340 -30 c13 -25 4
-60 -15 -60 -7 0 -15 -5 -17 -11 -7 -20 -48 9 -48 33 0 25 28 57 52 57 10 1
22 -8 28 -19z m1490 -40 c0 -6 -8 -13 -17 -16 -10 -3 -26 -10 -35 -15 -24 -12
-108 -12 -108 1 0 6 24 10 54 10 35 0 58 5 66 15 14 17 40 20 40 5z m-265
-150 c3 -5 -1 -10 -9 -10 -8 0 -18 5 -21 10 -3 6 1 10 9 10 8 0 18 -4 21 -10z"/>
<path d="M7900 8596 c0 -23 16 -27 17 -5 1 10 -2 19 -8 19 -5 0 -9 -6 -9 -14z"/>
<path d="M8350 8460 c0 -5 5 -10 10 -10 6 0 10 5 10 10 0 6 -4 10 -10 10 -5 0
-10 -4 -10 -10z"/>
<path d="M7330 8880 c0 -5 4 -10 9 -10 6 0 13 5 16 10 3 6 -1 10 -9 10 -9 0
-16 -4 -16 -10z"/>
<path d="M4993 8856 c4 -10 7 -22 7 -27 0 -5 5 -9 11 -9 15 0 7 43 -10 48 -10
3 -12 0 -8 -12z"/>
<path d="M5398 8830 c-7 -24 -3 -38 8 -28 3 4 4 17 2 30 l-3 23 -7 -25z"/>
<path d="M5026 8823 c-11 -11 -6 -23 10 -23 8 0 12 -5 9 -10 -3 -6 1 -13 9
-16 9 -3 16 -14 16 -23 0 -10 18 -34 41 -54 41 -38 51 -42 62 -30 8 7 -60 73
-74 73 -5 0 -9 6 -9 14 0 8 -3 16 -8 18 -4 2 -17 15 -28 30 -12 15 -24 24 -28
21z"/>
<path d="M6960 8781 c0 -10 26 -9 36 2 4 4 -2 7 -14 7 -12 0 -22 -4 -22 -9z"/>
<path d="M8567 8444 c-9 -10 2 -24 19 -24 8 0 14 7 14 15 0 15 -21 21 -33 9z"/>
<path d="M6360 8360 c0 -5 5 -10 10 -10 6 0 10 5 10 10 0 6 -4 10 -10 10 -5 0
-10 -4 -10 -10z"/>
<path d="M6320 8330 c0 -5 7 -7 15 -4 8 4 15 8 15 10 0 2 -7 4 -15 4 -8 0 -15
-4 -15 -10z"/>
<path d="M6492 8150 c0 -14 2 -19 5 -12 2 6 2 18 0 25 -3 6 -5 1 -5 -13z"/>
<path d="M2960 8133 c0 -10 -5 -25 -10 -33 -9 -13 -12 -13 -21 3 -5 9 -17 17
-25 17 -8 0 -17 -8 -21 -17 -3 -10 -23 -34 -43 -53 -162 -154 -151 -141 -189
-212 -27 -52 -31 -93 -8 -85 7 2 13 16 15 30 2 15 8 27 13 27 5 0 9 9 9 20 0
11 5 20 11 20 12 0 29 17 45 45 6 11 22 25 35 32 13 7 28 18 34 25 12 16 60
38 83 38 11 0 18 -9 19 -27 0 -15 6 -29 12 -31 6 -2 11 -8 11 -13 0 -5 18 -27
41 -48 44 -42 39 -57 -13 -45 -42 9 -63 22 -103 62 -36 36 -45 39 -45 17 0 -8
5 -15 10 -15 6 0 10 -5 10 -11 0 -6 18 -29 41 -52 32 -33 37 -43 24 -45 -9 -2
-29 10 -44 27 -32 36 -41 38 -41 11 0 -11 5 -20 10 -20 6 0 10 -4 10 -10 0
-16 -14 -12 -38 10 -12 11 -26 20 -31 20 -5 0 -11 8 -13 18 -2 11 -6 13 -11 5
-4 -6 0 -19 9 -28 9 -9 18 -31 21 -50 4 -30 2 -35 -16 -35 -14 0 -21 6 -21 19
0 11 -4 23 -10 26 -6 4 -10 -7 -10 -24 0 -18 -5 -31 -12 -31 -7 -1 5 -10 27
-21 74 -36 73 -48 -5 -60 -53 -8 -86 2 -127 41 -28 25 -33 25 -33 0 0 -11 4
-20 9 -20 6 0 22 -11 37 -25 l27 -25 -24 0 c-14 0 -42 9 -64 20 -22 11 -45 20
-52 20 -7 0 -13 4 -13 9 0 5 -10 13 -22 17 -13 4 -26 12 -30 18 -4 6 -10 7
-15 2 -8 -8 62 -76 78 -76 5 0 9 -4 9 -10 0 -5 -9 -10 -19 -10 -11 0 -23 5
-26 10 -3 6 -14 10 -24 10 -10 0 -24 7 -31 15 -14 17 -40 20 -40 5 0 -5 4 -10
9 -10 6 0 21 -10 35 -22 13 -13 41 -32 63 -43 21 -11 44 -26 51 -32 7 -7 18
-13 23 -13 5 0 18 -9 30 -21 15 -15 19 -28 14 -46 -5 -20 -9 -23 -18 -14 -6 6
-19 11 -29 11 -11 0 -29 11 -42 25 -13 14 -28 25 -34 25 -6 0 -18 8 -28 17 -9
10 -15 13 -13 8 3 -6 13 -26 22 -46 11 -24 27 -40 47 -47 46 -17 36 -32 -20
-32 -27 0 -50 -4 -50 -10 0 -5 12 -10 28 -10 23 0 62 -28 62 -45 0 -3 -16 -5
-35 -5 -36 0 -48 -14 -17 -22 9 -3 34 -4 54 -4 29 1 34 -1 26 -11 -6 -8 -34
-13 -67 -14 -31 0 -65 -4 -76 -8 -17 -7 -15 -10 15 -18 20 -6 50 -8 68 -5 20
2 32 0 32 -7 0 -6 -16 -11 -37 -11 l-36 0 23 -20 c13 -11 34 -23 47 -26 13 -4
23 -10 23 -15 0 -5 7 -9 15 -9 8 0 15 5 15 10 0 6 12 10 27 10 30 0 103 30
103 42 0 4 5 8 10 8 34 0 110 88 110 128 0 9 21 36 45 60 27 27 45 53 45 66 0
27 49 97 104 148 28 26 52 39 83 44 24 3 43 10 43 14 0 4 21 10 48 14 26 3 64
9 86 12 l38 6 -7 -43 c-14 -95 -2 -226 24 -252 6 -6 11 -19 11 -29 0 -25 17
-52 74 -114 27 -30 57 -54 66 -54 9 0 20 -4 26 -9 24 -22 113 -41 190 -41 83
0 92 2 204 53 72 33 160 107 160 134 0 7 4 13 10 13 5 0 12 16 16 35 3 19 10
35 15 35 5 0 9 23 9 50 0 51 9 61 35 38 29 -26 40 -34 58 -41 9 -4 20 -14 23
-22 7 -16 62 -75 70 -75 12 0 34 -30 34 -47 0 -10 -14 -27 -30 -38 -51 -34
-27 -50 30 -20 26 14 30 21 30 60 0 25 -4 45 -9 45 -5 0 -17 13 -28 29 -27 43
-221 194 -303 236 -18 10 -42 26 -53 36 -11 10 -28 21 -38 24 -9 3 -19 16 -23
28 -4 17 -8 19 -18 9 -16 -16 -45 -15 -55 2 -10 18 -79 56 -100 56 -14 0 -14
-2 2 -20 18 -20 17 -20 -8 -20 -29 0 -46 23 -49 64 -1 15 -6 26 -10 26 -4 0
-8 6 -8 13 0 8 -9 22 -19 31 -25 22 -40 2 -17 -23 9 -10 16 -27 16 -39 0 -11
5 -24 10 -27 20 -12 9 -25 -20 -25 -17 0 -48 11 -69 25 -22 13 -51 26 -65 29
-14 3 -31 8 -37 12 -8 5 -8 1 0 -14 16 -29 -3 -38 -36 -16 -36 23 -83 75 -83
92 0 7 -7 15 -15 18 -8 4 -15 12 -15 20 0 8 -4 14 -10 14 -5 0 -9 -11 -8 -25
1 -14 5 -25 9 -25 4 0 10 -11 13 -25 4 -14 11 -25 16 -25 6 0 10 -9 10 -19 0
-11 6 -22 13 -24 8 -4 7 -6 -4 -6 -8 -1 -25 10 -37 24 -24 28 -52 33 -52 10 0
-7 8 -19 18 -25 14 -9 10 -10 -18 -6 -82 11 -130 24 -147 37 -31 24 -69 63
-76 79 -27 54 -36 64 -42 48 -7 -18 23 -98 37 -98 4 0 8 -7 8 -15 0 -8 -4 -15
-8 -15 -12 0 -62 57 -62 70 0 5 -3 10 -8 10 -13 0 -32 39 -26 55 4 10 19 15
44 15 21 0 40 5 42 12 6 17 239 18 260 1 10 -9 18 -9 25 -2 8 8 17 8 31 0 11
-6 47 -11 79 -11 33 0 63 -4 69 -9 5 -6 24 -13 43 -16 19 -3 42 -10 52 -15 10
-6 31 -10 46 -10 16 0 33 -4 39 -8 5 -5 36 -17 69 -27 33 -11 64 -23 70 -27 5
-4 19 -8 31 -8 13 0 44 -11 70 -25 47 -25 104 -33 104 -15 0 6 -8 10 -19 10
-10 0 -24 7 -31 15 -7 8 -25 15 -40 15 -16 0 -30 7 -34 15 -3 8 -12 15 -19 15
-18 0 -75 28 -82 41 -4 5 -15 9 -26 9 -11 0 -23 8 -26 18 -4 9 -12 23 -19 30
-15 14 -44 16 -44 2 0 -5 -13 -10 -30 -10 -20 0 -30 5 -30 15 0 10 -10 15 -34
15 -19 0 -38 5 -41 11 -4 6 -13 8 -20 5 -17 -6 -65 15 -65 29 0 7 -15 9 -35 7
-30 -4 -35 -1 -35 17 0 16 -6 21 -25 21 -14 0 -24 -3 -22 -7 1 -5 -2 -8 -8 -8
-5 0 -9 3 -7 8 3 11 -26 8 -33 -4 -5 -6 -27 -8 -62 -3 -79 10 -114 8 -147 -5
-20 -8 -32 -8 -41 -1 -9 8 -15 6 -20 -7 -7 -16 -9 -15 -14 6 -8 30 -31 40 -31
14z m-140 -423 c0 -5 -9 -10 -19 -10 -11 0 -23 5 -26 10 -4 6 5 10 19 10 14 0
26 -4 26 -10z m680 -126 c0 -10 -8 -14 -22 -12 -27 4 -35 25 -11 30 23 6 33 0
33 -18z m80 -37 c0 -30 -6 -36 -31 -30 -22 6 -25 23 -7 41 19 19 38 14 38 -11z
m-105 -68 c5 -6 5 -13 -3 -21 -19 -19 -14 -27 21 -30 24 -2 33 -8 35 -25 2
-13 -1 -23 -7 -23 -6 0 -11 -6 -11 -13 0 -13 111 -38 181 -41 20 0 43 -7 52
-14 19 -16 41 -6 33 14 -7 19 13 28 56 25 29 -2 38 1 38 13 0 9 -4 16 -10 16
-5 0 -10 10 -10 21 0 19 4 21 35 16 30 -5 35 -3 35 13 0 10 9 22 20 25 26 8
60 -3 60 -20 0 -7 5 -15 12 -17 17 -6 -22 -70 -50 -83 -12 -5 -22 -13 -22 -17
0 -5 -5 -8 -11 -8 -12 0 -79 -66 -79 -78 0 -4 -27 -5 -60 -4 -48 3 -61 1 -66
-12 -3 -9 -14 -16 -24 -16 -29 0 -210 61 -210 71 0 5 -5 9 -11 9 -6 0 -20 11
-31 25 -11 14 -25 25 -31 25 -21 0 -39 40 -32 71 5 23 2 33 -16 48 -38 30 -20
49 43 43 29 -2 57 -8 63 -13z"/>
<path d="M3520 8080 c0 -5 4 -10 9 -10 6 0 13 5 16 10 3 6 -1 10 -9 10 -9 0
-16 -4 -16 -10z"/>
<path d="M6390 8046 c0 -22 3 -27 11 -19 8 8 8 16 0 30 -9 16 -10 14 -11 -11z"/>
<path d="M3170 7910 c19 -13 30 -13 30 0 0 6 -10 10 -22 10 -19 0 -20 -2 -8
-10z"/>
<path d="M8700 7910 c0 -5 5 -10 10 -10 6 0 10 5 10 10 0 6 -4 10 -10 10 -5 0
-10 -4 -10 -10z"/>
<path d="M8750 7866 c0 -9 5 -16 10 -16 6 0 10 4 10 9 0 6 -4 13 -10 16 -5 3
-10 -1 -10 -9z"/>
<path d="M2790 7860 c0 -5 5 -10 11 -10 5 0 7 5 4 10 -3 6 -8 10 -11 10 -2 0
-4 -4 -4 -10z"/>
<path d="M6320 7840 c0 -5 5 -10 11 -10 5 0 7 5 4 10 -3 6 -8 10 -11 10 -2 0
-4 -4 -4 -10z"/>
<path d="M4028 7833 c7 -3 16 -2 19 1 4 3 -2 6 -13 5 -11 0 -14 -3 -6 -6z"/>
<path d="M3848 7798 c13 -26 17 -29 20 -15 2 10 -2 24 -8 32 -22 26 -29 16
-12 -17z"/>
<path d="M8675 7810 c-3 -5 -1 -10 4 -10 6 0 11 5 11 10 0 6 -2 10 -4 10 -3 0
-8 -4 -11 -10z"/>
<path d="M8525 7790 c-3 -5 -1 -10 4 -10 6 0 11 5 11 10 0 6 -2 10 -4 10 -3 0
-8 -4 -11 -10z"/>
<path d="M8172 7721 c-9 -5 0 -21 27 -51 34 -38 41 -42 47 -26 8 22 -55 89
-74 77z"/>
<path d="M8121 7711 c-8 -5 -11 -16 -6 -30 6 -20 5 -21 -14 -9 -16 10 -23 10
-32 1 -10 -10 -8 -14 7 -20 10 -4 33 -19 49 -35 29 -27 30 -31 28 -103 -1 -42
2 -75 8 -75 5 0 9 11 9 24 0 13 7 29 15 36 8 7 15 27 15 45 0 18 -7 38 -15 45
-8 7 -15 27 -15 44 0 31 -19 86 -30 86 -3 0 -11 -4 -19 -9z"/>
<path d="M12395 7630 c-4 -16 -11 -30 -16 -30 -5 0 -9 -11 -9 -25 0 -20 5 -25
25 -25 24 0 25 3 25 55 0 59 -14 74 -25 25z"/>
<path d="M7965 7610 c-3 -5 -25 -10 -47 -10 -27 0 -45 -6 -54 -17 -21 -27 -17
-33 21 -33 19 0 35 -4 35 -9 0 -5 10 -11 23 -15 26 -6 99 -72 112 -101 8 -17
9 -16 13 12 3 28 -4 39 -44 78 -42 41 -55 69 -22 49 22 -14 36 -13 42 3 8 20
-1 33 -25 33 -10 0 -19 5 -19 10 0 6 -6 10 -14 10 -8 0 -18 -4 -21 -10z"/>
<path d="M2255 7540 c3 -5 11 -10 16 -10 6 0 7 5 4 10 -3 6 -11 10 -16 10 -6
0 -7 -4 -4 -10z"/>
<path d="M6505 7521 c-42 -13 -81 -52 -70 -71 4 -7 18 1 38 20 17 16 34 30 39
30 4 0 11 0 15 0 4 0 6 -18 4 -40 -3 -47 9 -73 20 -44 23 58 -3 118 -46 105z"/>
<path d="M6614 7515 c-4 -8 -12 -15 -20 -15 -15 0 -19 -16 -6 -24 12 -7 54 33
47 45 -9 13 -15 11 -21 -6z"/>
<path d="M2298 7500 c12 -11 25 -20 31 -20 5 0 23 -8 40 -17 24 -14 33 -15 43
-5 9 9 7 12 -14 12 -15 0 -39 11 -54 25 -15 14 -36 25 -47 25 -21 0 -21 0 1
-20z"/>
<path d="M6678 7506 c-19 -14 -25 -56 -8 -56 6 0 10 7 10 16 0 10 7 14 23 12
23 -3 23 -6 10 -70 -3 -17 -1 -28 6 -28 6 0 11 9 11 19 0 10 7 21 15 25 9 3
15 18 15 40 0 29 -4 36 -31 45 -18 6 -32 11 -33 11 -1 0 -9 -7 -18 -14z"/>
<path d="M7550 7484 c0 -12 -6 -15 -21 -11 -15 4 -17 2 -10 -6 10 -13 11 -16
11 -52 0 -14 5 -25 10 -25 6 0 10 18 10 40 0 45 9 50 30 18 37 -58 50 -96 50
-143 0 -36 3 -46 10 -35 12 19 13 117 1 124 -4 3 -11 19 -15 36 -3 18 -10 29
-16 25 -5 -3 -10 -1 -10 6 0 12 -29 38 -42 39 -5 0 -8 -7 -8 -16z"/>
<path d="M6835 7471 c-3 -5 -1 -12 5 -16 14 -9 52 4 45 16 -8 12 -42 12 -50 0z"/>
<path d="M7060 7445 c0 -8 4 -15 9 -15 5 0 11 -10 15 -22 5 -19 8 -20 15 -9
11 18 -1 46 -24 55 -9 3 -15 0 -15 -9z"/>
<path d="M6930 7425 c0 -14 5 -25 10 -25 6 0 10 4 10 9 0 5 3 16 6 25 4 11 1
16 -10 16 -10 0 -16 -9 -16 -25z"/>
<path d="M7130 7440 c0 -5 5 -10 10 -10 6 0 10 5 10 10 0 6 -4 10 -10 10 -5 0
-10 -4 -10 -10z"/>
<path d="M7310 7440 c0 -5 7 -10 15 -10 8 0 20 -10 26 -22 14 -27 30 -39 41
-32 9 6 -11 43 -32 61 -18 15 -50 17 -50 3z"/>
<path d="M6807 7426 c-6 -16 2 -28 14 -20 12 7 11 34 0 34 -5 0 -11 -6 -14
-14z"/>
<path d="M7160 7416 c0 -9 5 -16 10 -16 6 0 10 4 10 9 0 6 -4 13 -10 16 -5 3
-10 -1 -10 -9z"/>
<path d="M7757 7423 c-11 -10 -8 -43 3 -43 6 0 10 11 10 25 0 26 -2 29 -13 18z"/>
<path d="M6693 7345 c0 -22 2 -30 4 -17 2 12 2 30 0 40 -3 9 -5 -1 -4 -23z"/>
<path d="M7776 7365 c-3 -8 -1 -25 4 -37 8 -20 9 -18 9 15 1 39 -3 47 -13 22z"/>
<path d="M2310 7290 c0 -5 9 -10 19 -10 11 0 23 5 26 10 4 6 -5 10 -19 10 -14
0 -26 -4 -26 -10z"/>
<path d="M7780 7286 c0 -9 -4 -15 -9 -12 -5 3 -11 -1 -15 -9 -3 -8 -2 -17 3
-19 10 -7 37 42 28 51 -4 3 -7 -1 -7 -11z"/>
<path d="M4100 7260 c0 -5 -12 -10 -26 -10 -27 0 -134 -28 -134 -36 0 -2 18
-4 41 -4 24 0 38 4 34 10 -4 6 8 10 30 10 20 0 46 5 58 12 12 6 38 15 57 19
34 6 33 7 -12 8 -27 0 -48 -3 -48 -9z"/>
<path d="M2790 7239 c0 -5 5 -7 10 -4 6 3 10 -1 10 -9 0 -19 65 -84 111 -110
19 -11 36 -22 39 -25 14 -17 119 -61 146 -61 16 0 36 -6 42 -12 17 -17 231
-21 287 -6 22 5 59 12 83 15 23 3 42 9 42 14 0 5 7 9 16 9 9 0 30 6 47 14 18
8 41 18 52 22 16 7 10 9 -25 12 -26 2 -46 -1 -48 -7 -2 -6 -19 -11 -37 -11
-19 0 -36 -4 -39 -9 -14 -22 -286 -29 -375 -10 -25 6 -59 13 -76 16 -16 3 -32
9 -35 12 -8 9 -70 41 -82 41 -5 0 -15 6 -22 13 -12 12 -82 69 -115 94 -20 15
-31 16 -31 2z"/>
<path d="M3890 7190 c0 -5 11 -10 25 -10 14 0 25 5 25 10 0 6 -11 10 -25 10
-14 0 -25 -4 -25 -10z"/>
<path d="M3843 7173 c-25 -9 -13 -19 18 -15 22 3 27 7 18 13 -15 10 -18 10
-36 2z"/>
<path d="M4060 7172 c0 -5 7 -16 16 -23 14 -12 16 -11 13 5 -4 20 -29 35 -29
18z"/>
<path d="M4125 7170 c-3 -5 1 -10 10 -10 9 0 13 5 10 10 -3 6 -8 10 -10 10 -2
0 -7 -4 -10 -10z"/>
<path d="M3760 7140 c0 -5 14 -10 30 -10 17 0 30 5 30 10 0 6 -13 10 -30 10
-16 0 -30 -4 -30 -10z"/>
<path d="M3970 7129 c6 -10 15 -19 20 -19 6 0 10 -7 10 -15 0 -8 7 -15 15 -15
8 0 15 -8 15 -17 1 -17 1 -17 11 -1 7 12 6 24 -3 39 -10 17 -10 23 0 26 26 10
10 20 -33 21 -41 0 -44 -1 -35 -19z"/>
<path d="M3695 7120 c-17 -7 -15 -9 13 -9 17 -1 32 4 32 9 0 12 -17 12 -45 0z"/>
<path d="M2780 7104 c-19 -8 -43 -17 -52 -20 -10 -4 -18 -10 -18 -14 0 -15 37
-17 61 -4 33 18 103 18 119 -1 19 -23 3 -35 -46 -35 -42 0 -79 -16 -113 -48
-7 -7 -11 -15 -8 -18 6 -6 44 14 66 35 11 10 36 12 93 9 95 -6 114 -18 63 -42
-40 -19 -115 -87 -115 -104 0 -6 -5 -12 -11 -14 -6 -2 -9 -17 -7 -33 4 -27 5
-28 13 -10 5 11 14 24 22 28 7 4 13 14 13 22 0 22 67 68 90 62 11 -3 23 -1 26
4 7 12 34 11 34 -1 0 -5 -7 -10 -15 -10 -8 0 -15 -7 -15 -15 0 -8 4 -15 9 -15
17 0 42 32 37 46 -3 8 1 14 9 14 8 0 15 7 15 15 0 18 -49 75 -64 75 -6 0 -31
18 -56 40 -25 22 -52 40 -60 40 -8 0 -24 2 -35 5 -11 2 -36 -3 -55 -11z"/>
<path d="M3926 7104 c-3 -9 -6 -24 -6 -34 0 -9 -7 -23 -15 -30 -13 -10 -19 -8
-36 14 -18 22 -27 25 -71 23 -30 -1 -53 -7 -56 -14 -2 -7 4 -13 15 -13 10 0
27 -11 37 -25 10 -13 23 -22 28 -19 5 3 2 14 -7 24 -15 16 -14 18 5 23 13 3
23 0 27 -9 3 -8 11 -14 19 -14 10 0 14 -13 14 -45 0 -25 3 -45 6 -45 15 0 32
30 39 68 4 23 11 44 16 48 12 7 12 64 0 64 -5 0 -12 -7 -15 -16z"/>
<path d="M3657 7043 c-13 -12 -7 -43 8 -43 9 0 15 -9 15 -25 0 -14 5 -25 10
-25 14 0 12 25 -4 65 -16 37 -18 39 -29 28z"/>
<path d="M3730 7021 c0 -12 5 -21 10 -21 6 0 10 6 10 14 0 8 -4 18 -10 21 -5
3 -10 -3 -10 -14z"/>
<path d="M3547 6989 c-10 -11 -16 -28 -13 -36 5 -13 10 -12 26 7 20 23 27 50
12 50 -4 0 -16 -9 -25 -21z"/>
<path d="M3080 6960 c0 -12 -7 -20 -16 -20 -13 0 -15 -7 -10 -30 3 -16 2 -30
-3 -30 -4 0 -11 -23 -14 -52 -4 -28 -11 -56 -17 -62 -5 -5 -10 -19 -9 -30 0
-20 1 -20 11 2 6 12 17 22 25 22 7 0 13 9 13 20 0 11 4 20 10 20 9 0 48 39
102 103 13 15 27 24 31 21 12 -12 8 -24 -8 -24 -8 0 -15 -4 -15 -10 0 -13 12
-13 44 0 17 6 26 6 26 0 0 -17 20 -11 27 8 12 32 53 45 53 17 0 -8 -4 -15 -10
-15 -5 0 -10 -7 -10 -15 0 -13 3 -13 20 -3 11 7 20 23 20 36 0 12 7 25 15 28
8 4 15 12 15 20 0 16 -36 19 -45 4 -3 -5 -44 -10 -90 -10 l-85 0 -23 -37 c-13
-21 -26 -46 -30 -55 -8 -22 -47 -24 -47 -3 0 8 5 15 10 15 6 0 10 10 10 23 0
15 9 29 25 37 14 7 25 19 25 27 0 7 -11 13 -25 13 -18 0 -25 -5 -25 -20z"/>
<path d="M3418 6959 c-10 -10 -18 -32 -18 -48 0 -17 -4 -33 -10 -36 -10 -6 -8
-40 3 -51 4 -4 7 7 7 24 0 22 5 32 15 32 8 0 15 8 15 18 0 10 11 29 25 42 14
13 25 27 25 32 0 15 -45 6 -62 -13z"/>
<path d="M3680 6904 c0 -14 4 -23 9 -20 5 3 7 15 4 26 -7 28 -13 25 -13 -6z"/>
<path d="M3857 6915 c-4 -8 -2 -17 3 -20 6 -4 10 3 10 14 0 25 -6 27 -13 6z"/>
<path d="M2910 6882 c-14 -15 -31 -38 -37 -50 -15 -26 -17 -56 -3 -47 6 3 10
13 10 22 0 9 11 26 25 39 14 13 25 28 25 34 0 5 5 10 10 10 6 0 10 5 10 10 0
17 -14 10 -40 -18z"/>
<path d="M2960 6870 c0 -5 5 -10 11 -10 5 0 7 5 4 10 -3 6 -8 10 -11 10 -2 0
-4 -4 -4 -10z"/>
<path d="M3830 6870 c0 -5 5 -10 11 -10 5 0 7 5 4 10 -3 6 -8 10 -11 10 -2 0
-4 -4 -4 -10z"/>
<path d="M2790 6763 c0 -18 2 -33 4 -33 9 0 13 39 5 51 -6 10 -9 4 -9 -18z"/>
<path d="M2991 6694 c0 -11 3 -14 6 -6 3 7 2 16 -1 19 -3 4 -6 -2 -5 -13z"/>
<path d="M2827 6154 c-3 -3 -23 -8 -44 -11 -21 -3 -53 -11 -72 -19 -18 -8 -42
-14 -52 -14 -11 0 -27 -4 -37 -10 -9 -5 -35 -16 -57 -26 -22 -9 -63 -27 -90
-40 -28 -13 -56 -24 -63 -24 -6 0 -12 -4 -12 -10 0 -5 -8 -10 -19 -10 -10 0
-24 -7 -31 -15 -7 -8 -21 -15 -31 -15 -10 0 -21 -4 -24 -10 -3 -5 -13 -10 -21
-10 -16 0 -106 -59 -112 -72 -2 -5 -12 -8 -23 -8 -10 0 -19 -4 -19 -10 0 -5
-7 -10 -15 -10 -8 0 -15 -3 -15 -8 0 -4 -17 -16 -37 -27 -35 -19 -64 -40 -104
-77 -10 -10 -22 -18 -25 -18 -3 0 -26 -19 -51 -42 -67 -62 -65 -61 -114 -118
-24 -29 -50 -59 -57 -66 -24 -24 -92 -148 -92 -166 0 -10 -4 -18 -10 -18 -6 0
-10 -39 -10 -96 0 -105 3 -111 69 -148 32 -19 52 -21 182 -20 92 1 153 6 168
13 12 7 43 16 69 21 87 16 107 22 137 35 17 7 41 17 55 23 36 14 204 96 210
102 3 3 23 17 45 32 55 36 122 103 170 167 37 51 39 59 40 126 0 77 -5 86 -64
118 -35 18 -155 24 -165 8 -6 -9 40 -21 80 -21 24 0 57 -15 81 -37 19 -17 16
-113 -4 -153 -9 -19 -42 -59 -72 -90 -55 -55 -176 -140 -199 -140 -7 0 -12 -4
-12 -10 0 -5 -5 -10 -10 -10 -6 0 -33 -11 -62 -25 -28 -14 -59 -25 -68 -25 -9
0 -25 -7 -36 -15 -10 -8 -31 -15 -46 -15 -15 0 -30 -4 -33 -10 -3 -5 -18 -10
-33 -10 -15 0 -47 -7 -71 -15 -25 -9 -86 -17 -147 -18 -57 -1 -104 -5 -104 -9
0 -14 -55 -8 -89 10 -48 24 -68 78 -51 135 42 145 164 307 335 445 38 31 79
65 89 75 11 9 26 17 33 17 8 0 16 7 19 15 4 8 11 15 16 15 5 0 24 10 41 23 47
33 77 47 101 47 14 0 28 10 36 24 7 14 23 27 36 30 13 4 24 11 24 16 0 6 7 10
15 10 8 0 23 4 33 9 34 18 90 41 101 41 6 0 11 3 11 8 0 4 19 13 43 20 23 8
56 19 72 26 17 8 50 19 75 26 25 7 65 19 89 26 52 16 201 19 201 4 0 -5 7 -10
15 -10 21 0 39 -43 31 -75 -9 -35 -60 -87 -114 -115 -23 -12 -45 -26 -48 -31
-3 -5 -16 -9 -29 -9 -13 0 -27 -4 -30 -10 -3 -5 -18 -10 -33 -10 -44 0 -71
-11 -65 -25 6 -17 91 -9 114 11 8 8 28 14 42 14 15 0 27 5 27 10 0 6 8 10 19
10 10 0 24 7 31 15 7 8 17 15 23 15 6 0 29 21 52 46 30 32 44 58 48 84 9 65
-1 86 -53 114 -39 21 -61 26 -122 26 -41 0 -77 -3 -81 -6z"/>
<path d="M7890 6148 c-74 -20 -146 -41 -165 -48 -146 -56 -322 -135 -335 -151
-9 -11 -71 -19 -65 -9 3 5 1 18 -4 27 -9 15 -10 11 -11 -18 0 -39 -26 -65 -95
-99 -36 -18 -179 -120 -183 -132 -2 -4 -8 -8 -14 -8 -6 0 -52 -42 -102 -93
-103 -104 -136 -143 -136 -157 0 -6 -4 -10 -9 -10 -5 0 -21 -26 -36 -57 -15
-32 -33 -72 -41 -89 -10 -19 -16 -62 -16 -109 l-1 -79 44 -38 c34 -29 55 -39
97 -44 72 -9 257 4 307 21 22 7 67 19 100 26 33 7 69 18 80 24 11 7 40 18 65
25 25 8 52 20 61 27 8 7 21 13 28 13 7 0 25 8 39 19 15 10 37 22 50 25 12 4
22 12 22 17 0 5 7 9 15 9 8 0 15 4 15 9 0 5 9 13 21 16 31 10 161 144 186 191
20 39 26 75 24 135 -2 57 -72 99 -167 99 -35 0 -65 -4 -68 -9 -6 -9 40 -21 80
-21 25 0 58 -15 84 -39 19 -18 21 -132 3 -138 -7 -3 -13 -12 -13 -22 0 -20
-155 -171 -176 -171 -8 0 -14 -3 -14 -8 0 -4 -20 -16 -45 -27 -25 -11 -45 -23
-45 -27 0 -5 -8 -8 -19 -8 -10 0 -24 -7 -31 -15 -7 -8 -21 -15 -31 -15 -10 0
-21 -4 -24 -10 -3 -5 -16 -10 -29 -10 -12 0 -31 -7 -42 -15 -10 -8 -31 -15
-46 -15 -15 0 -30 -4 -33 -10 -3 -5 -18 -10 -33 -10 -15 0 -47 -7 -71 -15 -25
-9 -86 -17 -147 -18 -57 -1 -104 -5 -104 -9 0 -12 -39 -10 -76 4 -49 18 -95
114 -64 133 6 3 10 15 10 25 0 22 31 93 43 98 4 2 7 9 7 16 0 13 41 71 80 113
11 12 20 25 20 28 0 13 194 195 207 195 7 0 13 3 13 8 0 4 23 22 50 41 28 19
50 37 50 40 0 3 18 15 40 25 22 11 40 23 40 28 0 4 9 8 19 8 11 0 23 5 26 10
3 6 19 10 36 10 16 0 29 -4 29 -10 0 -5 11 -10 25 -10 14 0 25 5 25 10 0 6
-11 10 -25 10 -38 0 -31 26 15 55 22 14 44 25 50 25 6 0 18 4 28 9 26 13 134
62 162 73 14 5 38 16 53 24 16 8 37 14 48 14 11 0 27 4 37 9 60 30 282 56 282
32 0 -6 7 -11 15 -11 8 0 22 -11 30 -24 15 -23 14 -27 -11 -75 -16 -28 -34
-51 -41 -51 -7 0 -13 -4 -13 -9 0 -5 -20 -20 -45 -32 -25 -12 -45 -26 -45 -31
0 -4 -13 -8 -29 -8 -17 0 -33 -4 -36 -10 -3 -5 -21 -10 -38 -11 -18 0 -40 -4
-50 -8 -16 -6 -17 -9 -4 -19 17 -14 109 0 115 17 2 6 17 11 32 11 16 0 32 5
35 10 3 6 14 10 24 10 10 0 37 18 61 40 24 22 46 40 49 40 14 0 36 68 36 111
0 51 -15 72 -69 94 -40 17 -161 19 -216 3z"/>
<path d="M7330 6020 c0 -5 5 -10 10 -10 6 0 10 5 10 10 0 6 -4 10 -10 10 -5 0
-10 -4 -10 -10z"/>
<path d="M2221 5954 c0 -11 3 -14 6 -6 3 7 2 16 -1 19 -3 4 -6 -2 -5 -13z"/>
<path d="M4583 5883 c-89 -80 -53 -73 -385 -73 -192 0 -298 -4 -298 -10 0 -6
96 -10 269 -10 149 0 272 -4 275 -9 3 -5 -6 -17 -19 -27 -14 -10 -25 -24 -25
-31 0 -7 -4 -13 -9 -13 -12 0 -55 -43 -137 -138 -37 -42 -71 -78 -76 -80 -4
-2 -8 -8 -8 -14 0 -6 -11 -21 -25 -34 -14 -13 -25 -27 -25 -31 0 -4 -12 -21
-26 -38 -15 -16 -38 -48 -53 -70 -14 -22 -28 -42 -31 -45 -13 -13 -33 -79 -37
-122 -5 -45 -4 -46 27 -53 43 -9 130 4 137 21 3 8 18 14 33 14 16 0 32 5 35
10 4 6 -8 10 -29 10 -20 0 -36 -4 -36 -10 0 -6 -30 -10 -70 -10 -66 0 -70 1
-70 23 0 34 124 210 240 342 24 27 51 58 60 68 8 11 40 45 70 78 30 32 75 81
99 109 l45 50 183 0 c115 0 183 4 183 10 0 6 -58 10 -155 10 -173 0 -181 4
-120 57 19 17 35 34 35 37 0 15 -29 4 -57 -21z"/>
<path d="M9047 5877 c-19 -19 -41 -37 -50 -40 -10 -4 -17 -11 -17 -17 0 -7
-102 -10 -305 -10 -193 0 -305 -4 -305 -10 0 -6 102 -11 272 -12 206 -2 272
-6 276 -15 2 -7 -2 -13 -8 -13 -14 0 -40 -25 -40 -39 0 -6 -4 -11 -10 -11 -15
0 -138 -134 -233 -254 -27 -34 -61 -77 -77 -96 -16 -19 -30 -41 -30 -47 0 -7
-4 -13 -8 -13 -16 0 -72 -129 -72 -164 0 -49 19 -60 92 -52 34 3 69 13 78 21
9 8 26 15 38 15 11 0 24 5 27 10 4 6 -8 10 -29 10 -20 0 -36 -4 -36 -10 0 -14
-127 -13 -136 1 -7 12 26 89 39 89 4 0 7 5 7 11 0 18 115 171 173 230 15 15
27 30 27 33 0 3 12 19 28 35 15 16 70 75 122 131 52 56 99 108 103 116 6 11
44 14 192 14 117 0 185 4 185 10 0 6 -58 10 -155 10 -103 0 -155 4 -155 11 0
6 16 25 35 43 19 19 35 36 35 40 0 16 -32 3 -63 -27z"/>
<path d="M2310 5850 c0 -5 9 -10 20 -10 11 0 20 5 20 10 0 6 -9 10 -20 10 -11
0 -20 -4 -20 -10z"/>
<path d="M2360 5830 c0 -13 46 -24 67 -16 15 6 15 8 3 16 -20 13 -70 13 -70 0z"/>
<path d="M7450 5831 c0 -11 25 -21 55 -21 29 0 41 16 19 24 -24 9 -74 7 -74
-3z"/>
<path d="M2578 5812 c-54 -1 -98 -7 -98 -12 0 -13 227 -13 234 -1 8 13 -27 16
-136 13z"/>
<path d="M7662 5813 c-63 -2 -100 -7 -97 -13 8 -13 232 -13 239 -1 6 9 -19 23
-32 19 -4 -1 -53 -4 -110 -5z"/>
<path d="M3696 5780 c-19 -6 -19 -7 -1 -14 10 -3 22 -3 28 3 12 12 -4 20 -27
11z"/>
<path d="M8162 5781 c-11 -7 -11 -9 2 -14 20 -8 48 2 40 14 -7 11 -25 11 -42
0z"/>
<path d="M3640 5725 c-7 -8 -19 -15 -26 -15 -9 0 -14 -12 -14 -35 0 -31 3 -35
25 -35 31 0 74 45 75 78 0 17 -6 22 -24 22 -13 0 -29 -7 -36 -15z"/>
<path d="M4668 5709 c-36 -39 -37 -69 -2 -69 31 0 88 56 79 77 -3 8 -5 17 -5
19 0 2 -10 4 -22 3 -13 0 -35 -14 -50 -30z"/>
<path d="M2430 5650 c0 -5 6 -10 14 -10 8 0 18 5 21 10 3 6 -3 10 -14 10 -12
0 -21 -4 -21 -10z"/>
<path d="M3127 5654 c-9 -9 4 -35 14 -28 5 3 9 12 9 20 0 14 -12 19 -23 8z"/>
<path d="M7520 5650 c0 -5 6 -10 14 -10 8 0 18 5 21 10 3 6 -3 10 -14 10 -12
0 -21 -4 -21 -10z"/>
<path d="M2368 5623 c7 -3 16 -2 19 1 4 3 -2 6 -13 5 -11 0 -14 -3 -6 -6z"/>
<path d="M7468 5623 c7 -3 16 -2 19 1 4 3 -2 6 -13 5 -11 0 -14 -3 -6 -6z"/>
<path d="M3055 5604 c-21 -21 -19 -29 10 -48 17 -11 48 -16 105 -16 44 0 80
-3 80 -7 0 -5 -38 -48 -85 -96 -77 -80 -85 -92 -85 -128 0 -37 2 -39 30 -39
17 0 30 5 30 10 0 6 8 10 18 10 18 0 112 55 145 84 9 9 22 16 27 16 6 0 10 5
10 10 0 6 -7 10 -15 10 -8 0 -15 -4 -15 -9 0 -5 -8 -11 -17 -15 -18 -5 -53
-26 -63 -36 -17 -17 -90 -49 -94 -41 -7 10 25 71 37 71 4 0 7 5 7 11 0 7 11
22 25 35 14 13 25 26 25 29 0 4 6 13 13 20 36 41 41 52 38 81 0 6 -31 14 -67
17 -37 4 -84 15 -105 26 -34 18 -40 19 -54 5z"/>
<path d="M7410 5600 c0 -5 5 -10 10 -10 6 0 10 5 10 10 0 6 -4 10 -10 10 -5 0
-10 -4 -10 -10z"/>
<path d="M3846 5579 c-21 -11 -50 -31 -64 -45 -15 -13 -30 -24 -34 -24 -5 0
-8 -4 -8 -10 0 -17 20 -11 48 15 15 14 35 25 44 25 10 0 18 5 18 10 0 6 7 10
15 10 10 0 15 -10 15 -31 0 -17 4 -28 10 -24 6 3 10 17 10 30 0 13 5 25 12 27
15 5 3 38 -14 38 -7 0 -31 -9 -52 -21z"/>
<path d="M4895 5585 c-26 -12 -27 -13 -8 -14 12 -1 24 -5 28 -10 3 -6 -37 -52
-88 -104 -108 -108 -136 -152 -112 -176 19 -19 37 -10 170 84 164 116 214 145
250 145 30 0 31 -7 5 -40 -11 -14 -20 -29 -20 -34 0 -4 -11 -17 -25 -28 -14
-11 -25 -26 -25 -34 0 -8 -4 -14 -10 -14 -5 0 -17 -16 -25 -36 -14 -34 -14
-38 2 -49 17 -13 53 -9 53 6 0 5 9 9 19 9 11 0 23 5 26 10 4 6 -5 10 -19 10
-19 0 -26 5 -26 20 0 11 5 20 10 20 6 0 14 8 17 18 4 9 17 26 29 37 30 27 74
108 74 137 0 57 -53 63 -125 16 -48 -32 -158 -112 -181 -133 -60 -53 -109 -86
-118 -78 -3 3 5 18 19 32 97 102 125 135 125 146 0 7 7 16 16 19 22 8 14 48
-11 52 -11 1 -33 -3 -50 -11z"/>
<path d="M5445 5573 c-16 -9 -45 -31 -65 -49 -19 -19 -39 -34 -44 -34 -16 0
-95 -90 -84 -96 6 -4 8 -22 5 -41 -9 -53 9 -83 50 -83 18 0 33 5 33 10 0 6 5
10 11 10 11 0 75 49 121 93 36 35 53 32 33 -7 -8 -15 -15 -46 -15 -67 0 -38 1
-39 35 -39 19 0 35 5 35 10 0 6 6 10 14 10 8 0 18 5 22 12 5 8 -2 9 -24 5 -29
-6 -32 -4 -32 18 0 14 11 43 25 65 14 22 25 46 25 54 0 8 5 18 10 21 13 8 13
75 -1 75 -6 0 -17 -6 -24 -12 -31 -28 -44 -38 -51 -38 -4 0 -16 -10 -28 -23
-11 -12 -39 -36 -61 -52 -22 -17 -49 -38 -60 -48 -24 -22 -77 -49 -83 -43 -21
21 144 216 182 216 9 0 16 4 16 9 0 5 11 12 25 15 14 4 25 11 25 16 0 16 -62
11 -95 -7z"/>
<path d="M5560 5580 c0 -5 7 -10 15 -10 8 0 15 5 15 10 0 6 -7 10 -15 10 -8 0
-15 -4 -15 -10z"/>
<path d="M8250 5572 c-14 -9 -30 -21 -36 -27 -6 -5 -23 -19 -37 -30 -15 -11
-27 -23 -27 -27 0 -5 -9 -17 -20 -28 -10 -10 -26 -44 -35 -74 -15 -52 -15 -58
1 -85 19 -32 58 -47 96 -36 25 7 70 27 78 35 6 6 70 36 93 44 20 7 14 26 -9
26 -19 0 -18 4 16 51 33 47 48 116 30 148 -17 34 -35 20 -32 -24 2 -21 0 -40
-5 -44 -4 -3 -17 -21 -27 -40 -28 -50 -97 -121 -118 -121 -14 0 -18 8 -18 39
0 22 5 43 10 46 6 3 10 13 10 22 0 9 6 23 14 32 45 51 88 91 96 91 6 0 10 5
10 10 0 16 -63 11 -90 -8z m-88 -164 c-7 -7 -12 -8 -12 -2 0 14 12 26 19 19 2
-3 -1 -11 -7 -17z m-12 -49 c0 -10 5 -19 10 -19 6 0 10 -4 10 -10 0 -5 -9 -10
-20 -10 -16 0 -20 7 -20 36 0 21 4 33 10 29 6 -3 10 -15 10 -26z"/>
<path d="M9065 5580 c-3 -5 -15 -10 -26 -10 -10 0 -19 -7 -19 -15 0 -8 -6 -15
-14 -15 -16 0 -107 -96 -122 -130 -6 -14 -17 -38 -25 -53 -10 -22 -10 -32 -1
-47 7 -11 12 -27 12 -35 0 -10 10 -15 28 -15 26 0 139 81 182 130 29 33 42 25
25 -16 -21 -51 -20 -104 3 -105 28 -2 47 2 50 12 6 15 44 10 63 -7 17 -15 23
-15 76 1 32 9 67 21 78 25 11 4 38 15 60 23 114 44 162 46 172 7 3 -11 9 -20
14 -20 31 0 -13 -47 -109 -118 -20 -15 -46 -35 -57 -44 -18 -16 -109 -83 -275
-205 -36 -26 -94 -71 -130 -100 -36 -30 -70 -58 -77 -63 -7 -6 -16 -10 -21
-10 -5 0 -15 -11 -22 -25 -7 -14 -19 -25 -25 -25 -25 0 -185 -179 -185 -208 0
-5 -7 -23 -16 -41 -16 -32 -12 -91 7 -91 5 0 9 -6 9 -12 0 -7 18 -21 39 -30
44 -21 199 -25 234 -6 20 10 53 19 129 35 15 3 33 11 39 19 6 8 20 14 30 14
11 0 19 5 19 10 0 6 7 10 15 10 19 0 58 21 68 38 4 6 17 12 27 12 12 0 20 7
20 16 0 11 -6 14 -22 8 -13 -4 -25 -10 -28 -13 -9 -12 -115 -58 -160 -71 -25
-7 -64 -19 -86 -26 -24 -9 -87 -16 -147 -17 -91 -2 -108 1 -126 17 -32 29 -28
87 9 140 37 54 130 146 147 146 7 0 13 4 13 8 0 5 30 33 66 63 37 30 72 59 78
64 6 6 21 18 34 26 12 9 40 33 62 53 21 20 43 36 49 36 5 0 11 3 13 8 2 4 21
20 43 36 37 27 57 44 104 86 9 8 35 28 56 45 22 16 52 41 66 55 14 14 42 36
62 50 20 14 37 28 37 33 0 4 7 7 15 7 24 0 35 -44 35 -145 0 -90 13 -132 25
-82 8 32 2 228 -8 248 -6 12 5 29 37 63 26 26 46 51 46 56 0 6 7 10 15 10 8 0
15 5 15 10 0 20 -21 9 -67 -36 l-47 -45 -33 37 -34 37 -84 -1 c-46 -1 -92 -6
-102 -11 -10 -6 -36 -17 -58 -26 -22 -9 -48 -21 -57 -26 -18 -9 -58 -13 -58
-5 0 9 110 116 118 116 5 0 18 11 28 25 10 14 24 25 31 25 7 0 13 7 13 15 0 9
9 15 25 15 14 0 25 5 25 10 0 6 -4 10 -10 10 -16 0 -80 -33 -80 -42 0 -4 -7
-8 -15 -8 -9 0 -28 -11 -43 -25 -15 -14 -31 -25 -35 -25 -5 0 -39 -32 -77 -71
-38 -39 -74 -68 -79 -64 -18 10 -13 43 12 83 43 68 65 152 40 152 -6 0 -97
-64 -123 -87 -8 -7 -27 -24 -42 -38 -15 -14 -32 -25 -38 -25 -5 0 -10 -4 -10
-8 0 -10 -77 -62 -91 -62 -17 0 -9 33 18 69 34 46 133 139 156 147 9 3 17 9
17 14 0 4 11 11 25 14 14 4 25 11 25 16 0 13 -67 13 -75 0z"/>
<path d="M9160 5580 c0 -5 7 -10 15 -10 8 0 15 5 15 10 0 6 -7 10 -15 10 -8 0
-15 -4 -15 -10z"/>
<path d="M9988 5573 c-16 -8 -28 -18 -28 -24 0 -5 -7 -9 -15 -9 -8 0 -15 -4
-15 -10 0 -5 -6 -10 -13 -10 -22 0 -87 -69 -88 -93 0 -12 -3 -16 -6 -9 -10 25
-19 11 -15 -23 2 -19 -1 -42 -8 -49 -13 -17 9 -70 35 -80 20 -7 81 25 127 66
98 90 115 96 85 33 -24 -50 -22 -84 5 -94 25 -9 58 -3 58 10 0 5 6 9 14 9 8 0
18 5 22 11 5 8 -3 10 -24 7 -20 -3 -33 0 -36 8 -3 7 13 49 35 93 39 79 50 131
27 131 -13 0 -61 -35 -139 -102 -30 -26 -60 -48 -66 -48 -6 0 -13 -4 -15 -8
-4 -10 -73 -62 -81 -62 -4 0 -7 11 -7 25 0 14 4 25 9 25 5 0 12 8 16 18 10 32
125 139 176 163 26 13 48 27 49 32 0 12 -73 6 -102 -10z"/>
<path d="M10110 5580 c0 -5 7 -10 16 -10 8 0 12 5 9 10 -3 6 -10 10 -16 10 -5
0 -9 -4 -9 -10z"/>
<path d="M3494 5547 c-6 -7 -25 -23 -43 -37 -77 -62 -75 -59 -61 -75 7 -8 8
-15 2 -15 -5 0 -12 -12 -15 -27 -3 -16 -9 -40 -13 -55 -4 -18 -1 -36 9 -51 12
-19 22 -22 51 -19 42 5 46 18 11 34 -14 6 -25 17 -25 24 0 21 41 89 80 131 37
42 60 76 60 93 0 14 -43 12 -56 -3z"/>
<path d="M4508 5521 c-21 -22 -38 -44 -38 -50 0 -6 -3 -11 -7 -11 -12 0 -43
-59 -43 -80 0 -10 -4 -22 -10 -25 -14 -8 -13 -35 3 -69 11 -24 16 -27 47 -22
19 3 36 10 38 16 2 5 12 10 22 10 10 0 22 5 25 10 4 6 -11 10 -39 10 -53 0
-61 8 -44 47 11 24 80 117 99 133 10 8 29 48 29 59 0 24 -47 8 -82 -28z"/>
<path d="M4850 5550 c0 -5 5 -10 10 -10 6 0 10 5 10 10 0 6 -4 10 -10 10 -5 0
-10 -4 -10 -10z"/>
<path d="M4761 5499 c-14 -12 -21 -23 -15 -29 5 -5 19 0 33 11 14 12 21 23 15
29 -5 5 -19 0 -33 -11z"/>
<path d="M7260 5500 c0 -5 5 -10 10 -10 6 0 10 5 10 10 0 6 -4 10 -10 10 -5 0
-10 -4 -10 -10z"/>
<path d="M3685 5465 c-11 -13 -28 -24 -37 -25 -10 0 -18 -7 -18 -15 0 -8 -4
-15 -10 -15 -5 0 -10 -4 -10 -10 0 -21 28 -8 73 33 26 24 47 46 47 50 0 16
-26 5 -45 -18z"/>
<path d="M3856 5481 c-4 -7 -5 -15 -2 -18 9 -9 19 4 14 18 -4 11 -6 11 -12 0z"/>
<path d="M8525 5480 c-3 -5 -1 -10 4 -10 6 0 11 5 11 10 0 6 -2 10 -4 10 -3 0
-8 -4 -11 -10z"/>
<path d="M5768 5473 c7 -3 16 -2 19 1 4 3 -2 6 -13 5 -11 0 -14 -3 -6 -6z"/>
<path d="M4030 5450 c0 -5 -5 -10 -10 -10 -6 0 -21 -9 -33 -20 -12 -12 -33
-27 -47 -34 -14 -7 -47 -25 -73 -40 -51 -27 -95 -33 -128 -16 -13 7 -25 7 -38
0 -13 -7 -22 -7 -26 0 -3 5 -14 10 -23 10 -9 0 -27 12 -39 27 -22 25 -24 26
-43 8 -11 -10 -17 -22 -14 -27 4 -6 10 -6 17 1 16 16 27 13 27 -7 0 -16 17
-31 67 -58 88 -48 216 -2 341 123 43 43 49 53 32 53 -5 0 -10 -4 -10 -10z"/>
<path d="M5745 5450 c3 -5 8 -10 11 -10 2 0 4 5 4 10 0 6 -5 10 -11 10 -5 0
-7 -4 -4 -10z"/>
<path d="M8500 5450 c0 -5 5 -10 10 -10 6 0 10 5 10 10 0 6 -4 10 -10 10 -5 0
-10 -4 -10 -10z"/>
<path d="M10290 5449 c0 -5 5 -7 10 -4 6 3 10 8 10 11 0 2 -4 4 -10 4 -5 0
-10 -5 -10 -11z"/>
<path d="M3350 5430 c0 -5 7 -10 15 -10 8 0 15 5 15 10 0 6 -7 10 -15 10 -8 0
-15 -4 -15 -10z"/>
<path d="M4685 5429 c-11 -17 1 -21 15 -4 8 9 8 15 2 15 -6 0 -14 -5 -17 -11z"/>
<path d="M5715 5430 c-3 -5 1 -10 10 -10 9 0 13 5 10 10 -3 6 -8 10 -10 10 -2
0 -7 -4 -10 -10z"/>
<path d="M8470 5431 c0 -5 -9 -13 -20 -16 -11 -3 -20 -11 -20 -16 0 -16 25
-10 43 11 20 23 21 30 7 30 -5 0 -10 -4 -10 -9z"/>
<path d="M10260 5430 c0 -5 5 -10 10 -10 6 0 10 5 10 10 0 6 -4 10 -10 10 -5
0 -10 -4 -10 -10z"/>
<path d="M10239 5415 c-1 -6 -1 -13 0 -17 0 -5 -6 -8 -14 -8 -8 0 -15 -4 -15
-10 0 -14 11 -12 34 5 16 12 17 18 8 27 -7 7 -13 8 -13 3z"/>
<path d="M4650 5400 c0 -5 -7 -10 -15 -10 -8 0 -15 -4 -15 -10 0 -15 19 -12
36 4 16 17 18 26 4 26 -5 0 -10 -4 -10 -10z"/>
<path d="M5690 5400 c0 -5 5 -10 10 -10 6 0 10 5 10 10 0 6 -4 10 -10 10 -5 0
-10 -4 -10 -10z"/>
<path d="M5215 5380 c-3 -5 -2 -10 4 -10 5 0 13 5 16 10 3 6 2 10 -4 10 -5 0
-13 -4 -16 -10z"/>
<path d="M5670 5380 c0 -5 5 -10 11 -10 5 0 7 5 4 10 -3 6 -8 10 -11 10 -2 0
-4 -4 -4 -10z"/>
<path d="M8385 5380 c-3 -5 3 -10 14 -10 12 0 21 5 21 10 0 6 -6 10 -14 10 -8
0 -18 -4 -21 -10z"/>
<path d="M4594 5356 c-3 -9 -15 -16 -25 -16 -10 0 -19 -4 -19 -10 0 -15 23
-11 49 9 16 12 20 20 12 25 -6 4 -14 0 -17 -8z"/>
<path d="M5646 5361 c-4 -7 -5 -15 -2 -18 9 -9 19 4 14 18 -4 11 -6 11 -12 0z"/>
<path d="M5170 5350 c0 -5 -7 -10 -15 -10 -8 0 -15 -4 -15 -9 0 -21 17 -18 39
5 18 19 20 24 7 24 -9 0 -16 -4 -16 -10z"/>
<path d="M10185 5350 c4 -6 11 -8 16 -5 14 9 11 15 -7 15 -8 0 -12 -5 -9 -10z"/>
<path d="M3505 5330 c-3 -5 3 -10 14 -10 12 0 21 5 21 10 0 6 -6 10 -14 10 -8
0 -18 -4 -21 -10z"/>
<path d="M5610 5330 c0 -5 5 -10 10 -10 6 0 10 5 10 10 0 6 -4 10 -10 10 -5 0
-10 -4 -10 -10z"/>
<path d="M10155 5330 c-3 -5 1 -10 9 -10 9 0 16 5 16 10 0 6 -4 10 -9 10 -6 0
-13 -4 -16 -10z"/>
<path d="M3467 5299 c8 -8 16 -8 30 0 16 9 14 10 -11 11 -22 0 -27 -3 -19 -11z"/>
<path d="M4328 5203 c7 -3 16 -2 19 1 4 3 -2 6 -13 5 -11 0 -14 -3 -6 -6z"/>
<path d="M8798 5203 c7 -3 16 -2 19 1 4 3 -2 6 -13 5 -11 0 -14 -3 -6 -6z"/>
<path d="M4270 5180 c0 -5 7 -10 15 -10 8 0 15 5 15 10 0 6 -7 10 -15 10 -8 0
-15 -4 -15 -10z"/>
<path d="M8740 5180 c0 -5 7 -10 15 -10 8 0 15 5 15 10 0 6 -7 10 -15 10 -8 0
-15 -4 -15 -10z"/>
<path d="M4215 5160 c-8 -12 20 -24 35 -15 6 3 8 11 5 16 -8 12 -32 12 -40 -1z"/>
<path d="M8685 5160 c-8 -12 20 -24 35 -15 6 3 8 11 5 16 -8 12 -32 12 -40 -1z"/>
<path d="M9640 4918 c0 -7 5 -20 10 -28 8 -12 10 -9 10 13 0 15 -4 27 -10 27
-5 0 -10 -6 -10 -12z"/>
<path d="M9616 4835 c-3 -9 0 -15 9 -15 9 0 12 6 9 15 -4 8 -7 15 -9 15 -2 0
-5 -7 -9 -15z"/>
<path d="M6725 4680 c-19 -9 -48 -34 -65 -56 -26 -34 -29 -48 -30 -104 0 -54
4 -69 20 -83 11 -9 22 -17 25 -17 9 0 5 39 -5 45 -5 3 -10 24 -10 45 0 21 5
42 10 45 6 3 10 14 10 24 0 29 74 91 109 91 43 0 47 17 6 22 -20 2 -51 -3 -70
-12z"/>
<path d="M6883 4524 c-1 -53 -6 -101 -11 -107 -5 -7 -17 -39 -27 -72 -15 -54
-33 -99 -56 -147 -5 -10 -9 -25 -9 -33 0 -8 -4 -23 -9 -33 -24 -44 -41 -87
-41 -103 0 -10 -4 -21 -10 -24 -5 -3 -10 -23 -10 -44 0 -20 -7 -46 -15 -57
-10 -13 -14 -46 -15 -111 0 -117 11 -121 73 -26 28 45 34 63 17 63 -13 0 -13
44 -1 84 6 17 17 58 27 91 23 84 67 209 75 215 3 3 9 19 11 35 6 31 25 88 39
117 5 10 9 60 9 112 0 74 -3 95 -15 100 -8 3 -15 12 -15 21 0 8 -3 15 -7 15
-5 0 -9 -43 -10 -96z"/>
<path d="M7560 4610 c-11 -7 -5 -10 23 -10 26 0 37 -4 37 -15 0 -8 6 -15 13
-15 17 -1 92 -97 122 -157 29 -56 29 -57 13 -75 -49 -52 -63 -155 -32 -226 57
-130 64 -153 64 -209 0 -70 -37 -143 -86 -169 -19 -10 -34 -22 -34 -26 0 -5
-23 -8 -50 -8 -49 0 -58 4 -100 42 -12 11 -22 13 -26 7 -7 -12 24 -49 42 -49
7 0 14 -5 16 -12 3 -8 26 -12 61 -12 31 0 62 5 69 12 7 7 20 12 29 12 22 0 89
68 110 111 32 66 42 133 29 196 -12 58 -21 79 -66 163 -24 45 -32 113 -15 139
7 10 13 11 30 2 11 -7 21 -16 21 -21 0 -12 67 -55 98 -63 27 -6 52 0 52 14 0
5 -11 9 -25 9 -29 0 -88 49 -109 90 -11 23 -11 28 3 37 13 9 11 11 -14 17 -20
4 -35 16 -43 35 -21 48 -98 132 -152 166 -43 27 -57 30 -80 15z"/>
<path d="M9426 4569 c-15 -14 -16 -19 -5 -19 8 0 20 9 27 20 15 25 3 25 -22
-1z"/>
<path d="M7480 4529 c0 -43 5 -56 26 -75 22 -21 24 -26 10 -39 -8 -8 -18 -15
-22 -15 -15 0 -194 -193 -194 -210 0 -4 -11 -18 -25 -31 -13 -13 -25 -31 -25
-40 0 -20 -62 -51 -92 -47 -12 2 -23 -3 -25 -9 -3 -9 6 -13 26 -13 16 0 33 -4
36 -10 3 -5 3 -10 -2 -10 -4 0 -17 -18 -27 -40 -11 -22 -23 -40 -28 -40 -4 0
-8 -5 -8 -10 0 -13 -41 -70 -51 -70 -16 0 -19 56 -8 133 11 81 18 106 45 160
16 33 18 57 4 57 -5 0 -10 -6 -10 -13 0 -8 -11 -27 -25 -43 -33 -38 -55 -81
-55 -110 0 -12 -5 -24 -10 -26 -11 -3 -40 -178 -40 -242 0 -67 9 -87 31 -75
10 5 19 16 19 24 0 8 4 15 8 15 5 0 18 17 30 38 11 21 30 46 42 57 11 10 20
22 20 27 0 12 102 150 130 176 12 11 35 22 51 26 33 6 40 26 9 26 -11 0 -20 3
-20 6 0 7 92 116 130 154 14 14 36 39 50 55 39 47 92 81 131 88 35 5 37 4 45
-26 8 -32 8 -32 12 12 4 53 -5 61 -72 61 -41 0 -53 5 -72 28 -16 18 -24 40
-24 65 0 20 -4 37 -10 37 -5 0 -10 -23 -10 -51z"/>
<path d="M9363 4526 c-24 -11 -29 -21 -15 -30 4 -2 17 7 29 20 23 26 21 28
-14 10z"/>
<path d="M3763 4406 c-27 -15 -65 -57 -58 -64 2 -3 16 3 29 12 51 33 96 15 96
-37 0 -16 4 -26 10 -22 17 10 11 78 -9 103 -21 24 -35 26 -68 8z"/>
<path d="M4510 4410 c0 -5 14 -10 30 -10 28 0 30 -3 30 -35 0 -19 5 -35 10
-35 11 0 14 49 4 74 -7 18 -74 23 -74 6z"/>
<path d="M5622 4400 c-33 -16 -34 -30 0 -30 13 0 18 -8 18 -29 0 -17 -4 -33
-10 -36 -5 -3 -10 -14 -10 -22 0 -14 4 -13 20 5 11 12 20 25 20 30 0 5 7 15
15 22 20 17 19 57 -2 68 -12 6 -29 3 -51 -8z"/>
<path d="M7900 4410 c0 -5 12 -10 26 -10 14 0 23 4 19 10 -3 6 -15 10 -26 10
-10 0 -19 -4 -19 -10z"/>
<path d="M3200 4390 c0 -6 -8 -14 -17 -17 -27 -10 -58 -42 -49 -50 4 -4 21 0
37 10 37 21 94 22 133 2 36 -19 45 -19 53 1 3 8 -4 25 -17 40 -20 20 -33 24
-82 24 -33 0 -58 -4 -58 -10z"/>
<path d="M3445 4392 c-12 -9 -18 -33 -7 -30 23 5 61 -24 67 -51 11 -52 -20
-191 -43 -191 -7 0 -32 -48 -32 -62 0 -4 5 -8 10 -8 6 0 10 7 10 16 0 9 11 25
25 36 14 11 25 24 25 30 0 6 6 19 14 27 58 65 86 190 50 225 -16 17 -100 22
-119 8z"/>
<path d="M4213 4359 c-24 -22 -43 -44 -43 -49 0 -6 -3 -10 -8 -10 -8 0 -14
-11 -45 -77 -37 -75 -46 -88 -66 -86 -16 2 -20 -6 -26 -57 -4 -33 -11 -60 -16
-60 -5 0 -9 -8 -9 -17 -1 -22 -18 -44 -48 -60 -52 -30 -114 -2 -131 60 -14 52
-15 120 -4 172 5 22 7 48 5 58 -6 30 -22 8 -22 -32 0 -20 -6 -43 -12 -49 -9
-9 -13 -48 -13 -120 0 -90 3 -113 20 -142 18 -30 27 -35 65 -38 41 -3 46 -1
93 50 l50 53 -7 -92 c-10 -125 -1 -177 31 -192 34 -15 40 -7 19 24 -27 41 -16
212 19 290 7 17 23 55 36 85 13 30 29 62 36 71 7 8 13 23 13 32 0 9 3 17 8 17
7 0 25 30 38 63 3 9 10 17 15 17 5 0 9 6 9 14 0 15 77 96 92 96 5 0 6 5 3 10
-14 23 -61 9 -102 -31z"/>
<path d="M4470 4386 c0 -9 -6 -16 -13 -16 -14 0 -57 -44 -57 -59 0 -5 -7 -11
-15 -15 -8 -3 -15 -12 -15 -21 0 -8 -4 -15 -10 -15 -5 0 -10 -7 -10 -15 0 -9
-7 -18 -15 -21 -8 -4 -15 -17 -15 -30 0 -13 -4 -24 -10 -24 -5 0 -10 -8 -10
-19 0 -10 -7 -24 -15 -31 -8 -7 -15 -21 -15 -31 0 -10 -4 -21 -10 -24 -5 -3
-10 -14 -10 -23 0 -9 -7 -30 -15 -46 -8 -15 -15 -48 -15 -72 0 -24 -4 -44 -10
-44 -14 0 -12 -29 5 -96 16 -62 30 -84 52 -84 8 0 21 -7 29 -15 9 -8 22 -15
29 -15 7 0 20 7 29 15 8 8 24 15 36 15 21 0 30 5 81 53 16 15 34 27 39 27 6 0
10 5 10 10 0 6 5 10 10 10 6 0 10 -15 10 -34 0 -46 9 -66 29 -66 13 0 20 15
29 63 21 105 24 117 31 117 4 0 15 19 25 43 9 23 21 49 26 57 5 8 20 35 33 60
12 25 35 67 50 93 32 56 35 79 10 70 -29 -10 -43 -28 -96 -124 -38 -69 -42
-76 -92 -153 -27 -42 -52 -76 -57 -76 -4 0 -8 -5 -8 -11 0 -17 -82 -89 -102
-89 -10 0 -18 -4 -18 -10 0 -14 -22 -12 -58 6 -69 34 -87 140 -47 279 9 33 19
72 22 87 3 15 11 33 19 39 8 6 14 20 14 30 0 11 4 19 9 19 5 0 12 11 15 25 4
14 11 25 16 25 6 0 10 5 10 12 0 6 11 26 26 45 14 18 21 33 17 33 -4 0 7 8 25
18 35 18 42 35 18 40 -9 2 -16 -3 -16 -12z"/>
<path d="M5313 4371 c-18 -16 -34 -26 -37 -23 -3 3 -6 -2 -6 -11 0 -22 14 -22
35 -1 13 14 31 16 96 11 43 -3 81 -1 84 4 3 5 1 18 -5 29 -9 17 -21 20 -73 20
-55 0 -66 -3 -94 -29z"/>
<path d="M5835 4365 c-36 -31 -38 -34 -17 -35 12 0 22 5 22 10 0 11 88 14 114
4 9 -3 16 -12 16 -19 0 -19 38 -7 50 16 16 29 -31 59 -94 59 -44 0 -57 -5 -91
-35z"/>
<path d="M6091 4391 c-12 -8 -8 -11 15 -17 40 -9 49 -18 64 -64 10 -31 11 -43
2 -52 -7 -7 -12 -29 -12 -50 0 -21 -4 -38 -8 -38 -10 0 -46 -79 -39 -86 8 -8
40 27 62 69 11 20 23 37 27 37 5 0 8 10 8 23 0 13 4 27 10 33 5 5 13 30 16 55
5 34 2 49 -10 61 -9 9 -16 21 -16 27 0 13 -99 14 -119 2z"/>
<path d="M6520 4385 c-7 -8 -19 -15 -26 -15 -8 0 -14 -4 -14 -10 0 -5 -5 -10
-10 -10 -21 0 -172 -177 -200 -235 -8 -16 -17 -32 -20 -35 -5 -5 -24 -45 -54
-113 -9 -21 -16 -52 -16 -70 0 -18 -5 -38 -11 -44 -16 -16 18 -109 49 -133 37
-30 114 -26 176 8 46 26 59 43 38 50 -5 1 -17 -4 -25 -13 -10 -10 -34 -15 -71
-15 -49 0 -57 3 -75 29 -17 24 -21 44 -21 109 0 45 5 84 10 87 6 3 10 17 10
31 0 13 10 41 23 62 12 20 31 54 42 75 11 22 30 50 43 63 12 14 22 27 22 29 0
12 102 106 130 120 18 9 57 19 86 22 68 7 63 14 -14 19 -45 3 -63 0 -72 -11z"/>
<path d="M7980 4386 c0 -2 7 -6 15 -10 8 -3 15 -1 15 4 0 6 -7 10 -15 10 -8 0
-15 -2 -15 -4z"/>
<path d="M3385 4360 c-3 -5 3 -10 14 -10 12 0 21 5 21 10 0 6 -6 10 -14 10 -8
0 -18 -4 -21 -10z"/>
<path d="M5560 4360 c0 -5 7 -10 15 -10 8 0 15 5 15 10 0 6 -7 10 -15 10 -8 0
-15 -4 -15 -10z"/>
<path d="M8026 4345 c-8 -21 3 -67 15 -59 11 7 11 45 0 62 -7 11 -10 10 -15
-3z"/>
<path d="M7081 4341 c-10 -7 -6 -14 18 -32 22 -16 31 -31 31 -51 0 -42 17 -34
25 11 5 32 3 43 -14 60 -23 23 -38 26 -60 12z"/>
<path d="M6670 4322 c-14 -1 -34 -7 -45 -12 -11 -5 -29 -10 -39 -12 -39 -6
-29 -28 12 -28 45 0 68 -20 64 -55 -2 -13 2 -26 7 -30 6 -3 11 -24 11 -46 0
-48 23 -50 28 -3 2 16 8 33 13 39 15 15 10 79 -8 116 -14 27 -23 34 -43 31z"/>
<path d="M7630 4320 c0 -5 5 -10 11 -10 5 0 7 5 4 10 -3 6 -8 10 -11 10 -2 0
-4 -4 -4 -10z"/>
<path d="M3680 4309 c0 -5 5 -7 10 -4 6 3 10 8 10 11 0 2 -4 4 -10 4 -5 0 -10
-5 -10 -11z"/>
<path d="M7040 4309 c0 -5 5 -7 10 -4 6 3 10 8 10 11 0 2 -4 4 -10 4 -5 0 -10
-5 -10 -11z"/>
<path d="M4550 4294 c0 -8 5 -12 10 -9 6 3 10 10 10 16 0 5 -4 9 -10 9 -5 0
-10 -7 -10 -16z"/>
<path d="M7606 4291 c-4 -7 -5 -15 -2 -18 9 -9 19 4 14 18 -4 11 -6 11 -12 0z"/>
<path d="M3661 4264 c0 -11 3 -14 6 -6 3 7 2 16 -1 19 -3 4 -6 -2 -5 -13z"/>
<path d="M5595 4260 c-3 -5 -1 -10 4 -10 6 0 11 5 11 10 0 6 -2 10 -4 10 -3 0
-8 -4 -11 -10z"/>
<path d="M3155 4181 c-39 -40 -58 -43 -82 -12 -11 14 -12 14 -13 0 0 -9 9 -28
20 -42 20 -26 20 -26 1 -59 -11 -18 -28 -49 -37 -68 -10 -19 -27 -51 -39 -70
-23 -38 -55 -131 -55 -160 0 -31 11 -50 30 -50 21 0 30 19 30 65 0 19 5 37 10
40 6 3 10 15 10 25 0 10 11 40 25 66 14 26 25 53 25 60 0 8 4 14 10 14 5 0 12
11 16 25 3 14 10 25 15 25 5 0 9 5 9 11 0 6 18 38 40 71 22 33 40 64 40 69 0
5 5 9 11 9 5 0 7 5 4 10 -12 19 -33 10 -70 -29z"/>
<path d="M3755 4210 c3 -5 1 -10 -5 -10 -7 0 -21 -11 -32 -25 -11 -14 -30 -25
-44 -25 -25 0 -30 -14 -15 -39 9 -14 -32 -102 -51 -109 -4 -2 -8 -11 -9 -20 0
-9 -9 -30 -20 -47 -10 -16 -21 -37 -25 -45 -3 -8 -10 -23 -15 -32 -5 -10 -9
-44 -9 -77 0 -50 3 -59 19 -64 27 -7 31 0 31 54 0 26 5 51 10 54 6 3 10 17 10
29 0 13 7 29 15 36 8 7 15 19 15 26 0 14 5 27 30 74 7 14 26 50 42 80 46 88
55 102 69 110 14 9 5 40 -11 40 -6 0 -8 -4 -5 -10z"/>
<path d="M5292 4181 c-25 -30 -38 -37 -57 -33 -29 5 -32 -4 -9 -29 14 -16 13
-20 -8 -56 -13 -21 -30 -51 -37 -68 -7 -16 -20 -42 -27 -57 -8 -14 -14 -40
-14 -57 0 -17 -4 -31 -10 -31 -17 0 -11 -40 8 -61 30 -31 52 -15 52 37 0 44
25 105 85 214 14 25 25 53 25 62 0 10 5 18 10 18 6 0 10 6 10 14 0 7 7 26 14
42 14 26 13 44 -2 44 -4 0 -22 -17 -40 -39z"/>
<path d="M5513 4185 c-33 -33 -32 -48 3 -59 27 -8 48 -57 40 -91 -3 -14 -9
-37 -12 -52 -10 -48 -49 -122 -72 -136 -7 -5 -10 -12 -7 -18 4 -5 1 -9 -5 -9
-15 0 -44 -29 -36 -37 3 -3 22 10 41 30 20 21 41 37 47 37 6 0 9 3 6 6 -4 3
11 31 33 61 21 31 39 66 39 79 0 12 5 24 11 26 6 2 13 31 16 65 6 62 5 63 -26
80 -17 10 -31 26 -31 36 0 23 -9 20 -47 -18z"/>
<path d="M5812 4181 c-22 -26 -39 -37 -51 -34 -23 6 -38 -15 -17 -23 16 -6 23
-44 8 -44 -4 0 -12 -9 -17 -20 -6 -11 -29 -55 -51 -97 -73 -138 -91 -231 -48
-247 22 -8 22 -9 39 60 19 70 42 124 55 124 6 0 10 5 10 11 0 12 17 29 48 47
26 15 52 16 52 2 0 -5 9 -10 20 -10 31 0 37 -25 45 -183 4 -95 12 -158 21
-175 8 -15 14 -39 14 -54 0 -15 5 -30 10 -33 6 -3 10 -13 10 -22 0 -24 68
-124 103 -152 22 -18 45 -26 87 -29 50 -4 60 -1 83 21 24 22 27 31 27 96 0 41
-4 71 -10 71 -5 0 -10 6 -10 13 0 14 -35 47 -50 47 -6 0 -10 5 -10 10 0 6 -5
10 -11 10 -6 0 5 -22 25 -49 28 -37 36 -58 36 -90 0 -50 -24 -100 -48 -103
-43 -3 -76 5 -97 25 -34 33 -75 104 -75 130 0 13 -4 27 -8 33 -17 18 -41 182
-46 307 -4 121 -3 127 16 127 11 0 18 5 15 13 -2 7 -16 11 -35 9 -22 -2 -34 1
-38 12 -4 10 -18 16 -39 16 -27 0 -34 5 -41 28 -6 23 -8 24 -12 7 -5 -25 -31
-55 -48 -55 -7 0 -15 -6 -17 -12 -3 -7 -3 3 0 22 3 19 10 38 15 41 5 3 18 23
30 45 11 21 23 41 27 44 3 3 15 22 26 43 11 20 23 37 28 37 4 0 5 5 2 10 -12
20 -41 9 -73 -29z"/>
<path d="M6465 4210 c-3 -5 -1 -10 4 -10 6 0 11 5 11 10 0 6 -2 10 -4 10 -3 0
-8 -4 -11 -10z"/>
<path d="M6627 4160 c-9 -11 -17 -25 -17 -30 0 -6 -5 -10 -10 -10 -20 0 -52
-37 -40 -45 17 -11 99 65 100 93 0 18 -13 15 -33 -8z"/>
<path d="M6907 4128 c-3 -23 -1 -48 4 -54 10 -13 -8 -54 -23 -54 -5 0 -8 -7
-8 -15 0 -8 -3 -15 -8 -15 -4 0 -16 -17 -27 -37 -11 -21 -26 -44 -32 -51 -17
-18 -16 -32 2 -32 8 0 15 9 15 19 0 11 3 21 8 23 4 2 29 30 55 63 27 33 76 88
109 123 33 34 58 66 54 69 -8 9 -56 -17 -82 -44 -30 -32 -44 -29 -44 12 0 49
-16 44 -23 -7z"/>
<path d="M3207 4120 c-24 -27 -36 -60 -21 -60 3 0 16 13 30 29 14 18 38 31 61
36 27 5 33 9 22 16 -28 18 -65 9 -92 -21z"/>
<path d="M5890 4135 c0 -8 -5 -15 -11 -15 -18 0 -39 -28 -39 -52 0 -21 3 -19
30 14 16 19 41 39 55 42 31 8 24 26 -11 26 -15 0 -24 -6 -24 -15z"/>
<path d="M7425 4139 c-4 -6 -5 -13 -2 -16 7 -7 27 6 27 18 0 12 -17 12 -25 -2z"/>
<path d="M4380 4110 c0 -5 5 -10 10 -10 6 0 10 5 10 10 0 6 -4 10 -10 10 -5 0
-10 -4 -10 -10z"/>
<path d="M7350 4110 c0 -5 11 -10 25 -10 14 0 25 5 25 10 0 6 -11 10 -25 10
-14 0 -25 -4 -25 -10z"/>
<path d="M6660 4059 c0 -11 5 -17 10 -14 6 3 10 13 10 21 0 8 -4 14 -10 14 -5
0 -10 -9 -10 -21z"/>
<path d="M6076 4054 c-9 -24 -4 -24 18 -3 16 16 17 19 4 19 -9 0 -19 -7 -22
-16z"/>
<path d="M3160 4015 c0 -19 5 -35 10 -35 6 0 10 -7 10 -15 0 -17 16 -20 25 -5
3 6 -1 13 -9 16 -10 4 -16 19 -16 40 0 19 -4 34 -10 34 -5 0 -10 -16 -10 -35z"/>
<path d="M3405 4040 c-3 -5 -1 -10 4 -10 6 0 11 5 11 10 0 6 -2 10 -4 10 -3 0
-8 -4 -11 -10z"/>
<path d="M7598 4023 c-10 -2 -18 -9 -18 -14 0 -5 -6 -9 -13 -9 -20 0 -67 -57
-67 -80 0 -11 -4 -20 -10 -20 -6 0 -10 -27 -10 -60 0 -33 4 -60 10 -60 6 0 10
25 10 55 0 57 5 67 53 113 51 48 132 45 151 -5 6 -14 9 -15 15 -4 29 47 -51
102 -121 84z"/>
<path d="M3380 4009 c0 -5 5 -7 10 -4 6 3 10 8 10 11 0 2 -4 4 -10 4 -5 0 -10
-5 -10 -11z"/>
<path d="M6040 4009 c0 -5 5 -7 10 -4 6 3 10 8 10 11 0 2 -4 4 -10 4 -5 0 -10
-5 -10 -11z"/>
<path d="M6005 3990 c-19 -8 -19 -9 3 -9 12 -1 22 4 22 9 0 6 -1 10 -2 9 -2 0
-12 -4 -23 -9z"/>
<path d="M3338 3983 c7 -3 16 -2 19 1 4 3 -2 6 -13 5 -11 0 -14 -3 -6 -6z"/>
<path d="M3280 3960 c0 -5 11 -10 25 -10 14 0 25 5 25 10 0 6 -11 10 -25 10
-14 0 -25 -4 -25 -10z"/>
<path d="M3225 3940 c-3 -5 3 -10 14 -10 12 0 21 5 21 10 0 6 -6 10 -14 10 -8
0 -18 -4 -21 -10z"/>
<path d="M6591 3924 c0 -11 3 -14 6 -6 3 7 2 16 -1 19 -3 4 -6 -2 -5 -13z"/>
<path d="M5268 3912 c-16 -9 -28 -21 -28 -26 0 -5 -7 -17 -15 -26 -9 -10 -13
-24 -9 -33 7 -20 24 -12 24 11 0 22 62 62 95 62 28 0 34 15 9 24 -26 10 -47 7
-76 -12z"/>
<path d="M6560 3890 c0 -5 5 -10 10 -10 6 0 10 5 10 10 0 6 -4 10 -10 10 -5 0
-10 -4 -10 -10z"/>
<path d="M6526 3859 c-10 -12 -14 -24 -10 -27 4 -4 9 -1 11 6 3 6 11 12 19 12
15 0 19 16 6 24 -5 3 -16 -4 -26 -15z"/>
<path d="M6780 3850 c0 -11 4 -20 9 -20 11 0 22 26 14 34 -12 12 -23 5 -23
-14z"/>
<path d="M6471 3804 c-13 -13 -18 -24 -12 -24 17 0 54 37 44 43 -5 3 -19 -5
-32 -19z"/>
<path d="M4155 3787 c-4 -10 -5 -21 -1 -24 10 -10 18 4 13 24 -4 17 -4 17 -12
0z"/>
<path d="M5390 3760 c0 -5 4 -10 9 -10 6 0 13 5 16 10 3 6 -1 10 -9 10 -9 0
-16 -4 -16 -10z"/>
<path d="M5220 3746 c0 -9 5 -16 10 -16 6 0 10 4 10 9 0 6 -4 13 -10 16 -5 3
-10 -1 -10 -9z"/>
<path d="M5340 3740 c0 -5 9 -10 20 -10 11 0 20 5 20 10 0 6 -9 10 -20 10 -11
0 -20 -4 -20 -10z"/>
<path d="M5250 3710 c0 -13 50 -13 70 0 11 7 4 10 -27 10 -24 0 -43 -4 -43
-10z"/>
</g>
</svg>
